<svg xmlns="http://www.w3.org/2000/svg" viewBox="0 0 750 500"><g id="freepik--background-complete--inject-98"><polygon points="125.36 261.54 93.87 261.54 75.84 171.69 104.68 158.44 125.36 261.54" style="fill:#dbdbdb"></polygon><polygon points="215.48 261.54 125.36 261.54 104.68 158.44 194.8 158.44 215.48 261.54" style="fill:#ebebeb"></polygon><rect x="60.93" y="213.33" width="48.26" height="99.02" style="fill:#dbdbdb"></rect><polygon points="238.65 312.35 225.46 312.35 205.81 213.33 238.65 213.33 238.65 312.35" style="fill:#dbdbdb"></polygon><rect x="109.19" y="213.33" width="26.52" height="99.02" style="fill:#ebebeb"></rect><rect x="238.65" y="213.33" width="26.52" height="99.02" style="fill:#ebebeb"></rect><rect x="135.71" y="261.54" width="102.94" height="50.81" style="fill:#ebebeb"></rect><rect x="135.71" y="239.57" width="102.94" height="22.17" style="fill:#ebebeb"></rect><path d="M115.69,213.33l10-.18,10-.12h.3v.31l.11,11.59,0,11.59c0,7.72.06,15.45,0,23.17s0,15.46-.13,23.18-.17,15.45-.33,23.18q-.26-11.6-.34-23.18c-.1-7.72-.11-15.45-.13-23.18s0-15.45,0-23.17l0-11.59.11-11.59.31.31-10-.13Z" style="fill:#dbdbdb"></path><path d="M238.65,213.33c.2,7.76.3,15.51.38,23.26l.11,23.27L239,283.12l-.14,11.63-.24,11.63-.25-11.63-.14-11.63-.11-23.26.11-23.27C238.34,228.84,238.44,221.09,238.65,213.33Z" style="fill:#dbdbdb"></path><path d="M238.65,261.54c-8.58.21-17.16.3-25.74.38l-25.73.12-25.74-.12-12.87-.14-12.86-.24,12.86-.25,12.87-.14,25.74-.11,25.73.12C221.49,261.24,230.07,261.33,238.65,261.54Z" style="fill:#dbdbdb"></path><path d="M238.65,239.57c-8.58.21-17.16.3-25.74.38l-25.73.12L161.44,240l-12.87-.14-12.86-.25,12.86-.24,12.87-.14,25.74-.12,25.73.12C221.49,239.27,230.07,239.37,238.65,239.57Z" style="fill:#dbdbdb"></path><polygon points="79.27 312.35 78.62 320.37 77.09 338.91 70.11 338.91 68.58 320.37 67.93 312.35 79.27 312.35" style="fill:#c7c7c7"></polygon><polygon points="67.93 312.35 79.27 312.35 78.62 320.37 68.58 320.37 67.93 312.35" style="fill:#a6a6a6"></polygon><polygon points="128.12 312.35 127.47 320.37 125.94 338.91 118.95 338.91 117.43 320.37 116.78 312.35 128.12 312.35" style="fill:#c7c7c7"></polygon><polygon points="116.78 312.35 128.12 312.35 127.47 320.37 117.43 320.37 116.78 312.35" style="fill:#a6a6a6"></polygon><polygon points="209.14 312.35 208.49 320.37 206.96 338.91 199.98 338.91 198.45 320.37 197.8 312.35 209.14 312.35" style="fill:#c7c7c7"></polygon><polygon points="197.8 312.35 209.14 312.35 208.49 320.37 198.45 320.37 197.8 312.35" style="fill:#a6a6a6"></polygon><polygon points="258 312.35 257.35 320.37 255.82 338.91 248.84 338.91 247.31 320.37 246.66 312.35 258 312.35" style="fill:#c7c7c7"></polygon><polygon points="258 312.35 257.35 320.37 247.31 320.37 246.66 312.35 258 312.35" style="fill:#a6a6a6"></polygon><rect x="323.52" y="34.76" width="153.02" height="203.96" style="fill:#ebebeb"></rect><rect x="330.77" y="42.93" width="66.17" height="90.72" style="fill:#fff"></rect><rect x="403.12" y="42.93" width="66.17" height="90.72" style="fill:#fff"></rect><rect x="330.77" y="139.83" width="66.17" height="90.72" style="fill:#fff"></rect><rect x="403.12" y="139.83" width="66.17" height="90.72" style="fill:#fff"></rect><rect x="323.52" y="34.76" width="31.51" height="291.8" style="fill:#dbdbdb"></rect><polygon points="349.06 48.64 349.3 80.19 349.39 111.74 349.56 174.84 349.39 237.94 349.3 269.49 349.06 301.04 348.81 269.49 348.72 237.94 348.56 174.84 348.73 111.74 348.81 80.19 349.06 48.64" style="fill:#ebebeb"></polygon><polygon points="334.59 55.95 334.83 84.13 334.97 112.3 335.09 168.64 334.98 224.98 334.83 253.15 334.59 281.32 334.35 253.15 334.2 224.98 334.09 168.64 334.21 112.3 334.35 84.13 334.59 55.95" style="fill:#ebebeb"></polygon><polygon points="341.82 62.6 342.07 95.59 342.15 128.58 342.32 194.55 342.16 260.52 342.07 293.51 341.82 326.5 341.58 293.51 341.49 260.52 341.32 194.55 341.49 128.58 341.58 95.59 341.82 62.6" style="fill:#ebebeb"></polygon><polygon points="329.21 50.3 329.45 84.83 329.54 119.35 329.71 188.4 329.54 257.45 329.45 291.97 329.21 326.5 328.96 291.97 328.88 257.45 328.71 188.4 328.88 119.35 328.97 84.83 329.21 50.3" style="fill:#ebebeb"></polygon><rect x="445.04" y="34.76" width="31.51" height="291.8" transform="translate(921.58 361.33) rotate(180)" style="fill:#dbdbdb"></rect><polygon points="451.01 48.64 451.25 80.19 451.34 111.74 451.51 174.84 451.34 237.94 451.25 269.49 451.01 301.04 450.76 269.49 450.68 237.94 450.51 174.84 450.68 111.74 450.77 80.19 451.01 48.64" style="fill:#ebebeb"></polygon><polygon points="465.48 55.95 465.72 84.13 465.86 112.3 465.98 168.64 465.86 224.98 465.72 253.15 465.48 281.32 465.23 253.15 465.09 224.98 464.98 168.64 465.09 112.3 465.23 84.13 465.48 55.95" style="fill:#ebebeb"></polygon><polygon points="458.24 62.6 458.49 95.59 458.57 128.58 458.74 194.55 458.57 260.52 458.49 293.51 458.24 326.5 458 293.51 457.91 260.52 457.74 194.55 457.91 128.58 458 95.59 458.24 62.6" style="fill:#ebebeb"></polygon><polygon points="470.86 50.3 471.1 84.83 471.19 119.35 471.36 188.4 471.19 257.45 471.1 291.97 470.86 326.5 470.61 291.97 470.52 257.45 470.36 188.4 470.52 119.35 470.61 84.83 470.86 50.3" style="fill:#ebebeb"></polygon><rect x="534.56" y="34.76" width="153.02" height="203.96" style="fill:#ebebeb"></rect><rect x="541.81" y="42.93" width="66.17" height="90.72" style="fill:#fff"></rect><rect x="614.16" y="42.93" width="66.17" height="90.72" style="fill:#fff"></rect><rect x="541.81" y="139.83" width="66.17" height="90.72" style="fill:#fff"></rect><rect x="614.16" y="139.83" width="66.17" height="90.72" style="fill:#fff"></rect><rect x="534.56" y="34.76" width="31.51" height="291.8" style="fill:#dbdbdb"></rect><polygon points="560.09 48.64 560.33 80.19 560.42 111.74 560.59 174.84 560.42 237.94 560.33 269.49 560.09 301.04 559.85 269.49 559.76 237.94 559.59 174.84 559.76 111.74 559.85 80.19 560.09 48.64" style="fill:#ebebeb"></polygon><polygon points="545.62 55.95 545.87 84.13 546 112.3 546.12 168.64 546.01 224.98 545.87 253.15 545.62 281.32 545.38 253.15 545.24 224.98 545.12 168.64 545.24 112.3 545.38 84.13 545.62 55.95" style="fill:#ebebeb"></polygon><polygon points="552.86 62.6 553.1 95.59 553.19 128.58 553.36 194.55 553.19 260.52 553.1 293.51 552.86 326.5 552.61 293.51 552.52 260.52 552.36 194.55 552.52 128.58 552.61 95.59 552.86 62.6" style="fill:#ebebeb"></polygon><polygon points="540.24 50.3 540.49 84.83 540.57 119.35 540.74 188.4 540.58 257.45 540.49 291.97 540.24 326.5 540 291.97 539.91 257.45 539.74 188.4 539.91 119.35 540 84.83 540.24 50.3" style="fill:#ebebeb"></polygon><rect x="656.07" y="34.76" width="31.51" height="291.8" transform="translate(1343.64 361.33) rotate(180)" style="fill:#dbdbdb"></rect><polygon points="662.04 48.64 662.28 80.19 662.37 111.74 662.54 174.84 662.37 237.94 662.29 269.49 662.04 301.04 661.8 269.49 661.71 237.94 661.54 174.84 661.71 111.74 661.8 80.19 662.04 48.64" style="fill:#ebebeb"></polygon><polygon points="676.51 55.95 676.75 84.13 676.89 112.3 677.01 168.64 676.89 224.98 676.75 253.15 676.51 281.32 676.26 253.15 676.12 224.98 676.01 168.64 676.13 112.3 676.27 84.13 676.51 55.95" style="fill:#ebebeb"></polygon><polygon points="669.27 62.6 669.52 95.59 669.61 128.58 669.77 194.55 669.61 260.52 669.52 293.51 669.27 326.5 669.03 293.51 668.94 260.52 668.78 194.55 668.94 128.58 669.03 95.59 669.27 62.6" style="fill:#ebebeb"></polygon><polygon points="681.89 50.3 682.13 84.83 682.22 119.35 682.39 188.4 682.22 257.45 682.13 291.97 681.89 326.5 681.64 291.97 681.56 257.45 681.39 188.4 681.56 119.35 681.65 84.83 681.89 50.3" style="fill:#ebebeb"></polygon><rect x="489.51" y="245.15" width="26.48" height="11.19" style="fill:#ebebeb"></rect><rect x="489.51" y="66.72" width="26.48" height="11.19" style="fill:#ebebeb"></rect><rect x="504.28" y="80.83" width="26.48" height="11.19" style="fill:#ebebeb"></rect><rect x="78.67" y="66.73" width="26.48" height="11.19" style="fill:#ebebeb"></rect><rect x="232.12" y="139.45" width="26.48" height="11.19" transform="translate(490.72 290.1) rotate(180)" style="fill:#ebebeb"></rect><rect x="246.89" y="125.34" width="26.48" height="11.19" transform="translate(520.27 261.88) rotate(180)" style="fill:#ebebeb"></rect></g><g id="freepik--Shadows--inject-98"><ellipse cx="482.16" cy="407.94" rx="205.71" ry="25.24" style="fill:#ebebeb"></ellipse><ellipse cx="197.8" cy="443.21" rx="127.92" ry="20.73" style="fill:#ebebeb"></ellipse></g><g id="freepik--Floor--inject-98"><polygon points="46.67 338.91 128.75 338.67 210.84 338.58 375 338.41 539.16 338.58 621.25 338.67 703.33 338.91 621.25 339.15 539.16 339.24 375 339.41 210.84 339.24 128.75 339.15 46.67 338.91" style="fill:#263238"></polygon></g><g id="freepik--Plant--inject-98"><ellipse cx="84.71" cy="362.15" rx="36.78" ry="7.18" style="fill:#ebebeb"></ellipse><path d="M78.71,280.76a63.49,63.49,0,0,1,2.05,11.65c-.1.19-.08.91,0,.71,0,.64,1,.53,1-.1,0-.41,0-.83,0-1.23C84,289,87.33,287.18,90,284.73a15.48,15.48,0,0,0,4.52-7.2c2.22-7.63.14-15.72,2.8-23.33,2.3-6.57,6.42-12.27,9.91-18.22,3.67-6.29,6.39-12.9,6.66-20.27.22-5.64-.46-13.15-4.75-17.38-4.56-4.48-10.2-1.12-13.69,2.87-10.11,11.61-14.79,26.27-16.68,41.26-1,8.3-2.12,16.65-1.87,25A66.65,66.65,0,0,0,78.71,280.76Z" style="fill:#5CDB95"></path><path d="M80.72,295.45A143.07,143.07,0,0,1,81,271.94a.1.1,0,0,1,0-.08c-.13-6.36-.63-12.68-.38-19.05a113.36,113.36,0,0,1,2.79-20.42c0-.08.14-.06.13,0a132.77,132.77,0,0,0-2.21,20c-.13,3.59-.11,7.19.08,10.77.06,1.17.17,2.35.25,3.52h0a125.59,125.59,0,0,1,18.91-50c.13-.2.49,0,.37.23A130.56,130.56,0,0,0,85.51,254c4.86-9,12.2-16.41,17.65-25.07,0,0,.11,0,.08.05-4.89,9.64-13,17.24-18.13,26.73q-1.35,5.8-2.17,11.71a130.05,130.05,0,0,0-1.17,16.26c3-5.54,6-10.83,8.45-16.69.07-.15.29-.05.24.11-2.06,6.08-4.83,12.63-8.71,17.82,0,3.84.09,7.7.32,11.54.6,10.26,2.36,20.39,3.17,30.62a.24.24,0,0,1-.47.05A235.24,235.24,0,0,1,80.72,295.45Z" style="fill:#263238"></path><path d="M91.62,216.3c0-.07.14,0,.11,0-1.87,5.19-2.93,10.44-4.29,15.75a.19.19,0,0,1-.38-.06C87.61,226.65,89.53,221.27,91.62,216.3Z" style="fill:#263238"></path><path d="M44,238a77.85,77.85,0,0,0,4.31,8.86c3.37,6.13,6.89,11.74,7.53,18.88.29,3.19.39,6.39,1.36,9.46A28.46,28.46,0,0,0,61,282.64c3.66,5.33,8.23,9.92,11.62,15.45a64.93,64.93,0,0,1,7.72,18.62c.09.36.65.26.57-.1a.12.12,0,0,1,0-.08.15.15,0,0,0,0-.08c.54-15.3-.68-30.73-5.35-45.39a158.33,158.33,0,0,0-7.42-18.88c-2.5-5.31-5.62-10.43-10-14.4-2.85-2.56-9-7.43-13.08-4.85C43.1,234.16,43.25,236.12,44,238Z" style="fill:#5CDB95"></path><path d="M59.4,272.73a124.63,124.63,0,0,0,8.89,12.78c1.48,1.94,3,3.85,4.47,5.79.69.92,1.48,1.83,2.12,2.81q-.6-2.42-1.21-4.83c-2-7.73-3.87-15.53-6.81-23a155.21,155.21,0,0,0-10.63-20.83c-.1-.18.18-.31.29-.13,3.23,5.31,6.51,10.63,9.23,16.23a85.36,85.36,0,0,1,3.92,9.64,148.56,148.56,0,0,0-5.22-20.59.05.05,0,0,1,.1,0A70.25,70.25,0,0,1,70,272s0,0,0,0c.66,2,1.27,4,1.84,6,2.41,8.56,4.53,17.22,6.49,25.9a92.66,92.66,0,0,0-1.47-17c0-.13.17-.16.2,0a53.92,53.92,0,0,1,1.47,17.94q1.13,4.95,2.17,9.91c1.51,7.06,3.36,14.24,4.24,21.4a.15.15,0,0,1-.29.05c-1-3.86-1.68-7.87-2.54-11.78s-1.75-7.83-2.66-11.74q-2-8.55-4.14-17.05c-1-2.08-2.78-3.93-4.15-5.67-1.51-1.91-3-3.83-4.48-5.77a86.63,86.63,0,0,1-7.37-11.4A.08.08,0,0,1,59.4,272.73Z" style="fill:#263238"></path><path d="M58.74,266.18A79.84,79.84,0,0,1,67.45,280c0,.06-.07.13-.11.07-2.93-4.59-5.81-9.22-8.73-13.81C58.56,266.19,58.69,266.11,58.74,266.18Z" style="fill:#263238"></path><path d="M123.9,252.54c-2,3.42-4.25,7.52-3.4,11.62.54,2.6,2.44,4.7,2.78,7.35.77,5.85-5,9.71-9.27,12.47-10.51,6.9-24.92,13-26.83,27.13-.08.5-.94.37-.87-.12a.29.29,0,0,1,0-.09s-.06,0-.06-.08a53.91,53.91,0,0,1,.2-21.51c1.57-7.26,4.74-13.78,8.48-20.16,6.32-10.78,13-21.83,22.58-30.1,2.65-2.28,8.07-6.4,10.18-1.24S126.33,248.38,123.9,252.54Z" style="fill:#5CDB95"></path><path d="M114.28,275.42c-7,7.54-18,11.77-24,20.22a84.67,84.67,0,0,1,18.48-34.71.27.27,0,0,0-.38-.39,68.54,68.54,0,0,0-15.1,21.87,98.32,98.32,0,0,1,6.5-16.63.18.18,0,0,0-.31-.18,63.64,63.64,0,0,0-7,18.7c-7.9,19.13-8.63,41.57-7,61.73,0,.29.46.3.45,0-.45-15.89-.2-32.06,3.61-47.58.08-.32.17-.64.25-1,6.53-9.09,17.56-13.31,24.65-21.94C114.47,275.45,114.35,275.33,114.28,275.42Z" style="fill:#263238"></path><path d="M115.89,268.94c-3.65,3.35-7.26,6.79-10.92,10.14,0,0,0,.1,0,.07a53.52,53.52,0,0,0,11.09-10C116.23,269,116,268.8,115.89,268.94Z" style="fill:#263238"></path><path d="M116.47,254.4a114.42,114.42,0,0,1-10.94,15,.06.06,0,1,0,.09.09,52.9,52.9,0,0,0,11-15A.11.11,0,0,0,116.47,254.4Z" style="fill:#263238"></path><polygon points="100 360.25 67.96 360.25 72.28 317.15 95.07 317.15 100 360.25" style="fill:#455a64"></polygon><polygon points="95.87 324.15 71.58 324.15 72.28 317.15 95.07 317.15 95.87 324.15" style="fill:#263238"></polygon><rect x="68.97" y="312.37" width="30.03" height="6.88" style="fill:#455a64"></rect></g><g id="freepik--Lamp--inject-98"><rect x="260.84" y="332.59" width="51.58" height="5.86" style="fill:#455a64"></rect><rect x="283.57" y="112.11" width="6.11" height="220.47" style="fill:#455a64"></rect><rect x="283.57" y="112.11" width="6.11" height="30.96" style="fill:#263238"></rect><polygon points="318.97 130.04 254.27 130.04 258.97 114.59 259.14 114.05 272.82 69.08 300.42 69.08 314.11 114.06 314.11 114.06 314.26 114.58 318.97 130.04" style="fill:#5CDB95"></polygon><path d="M275.11,79.47a.43.43,0,0,1-.43.44.44.44,0,1,1,0-.87A.43.43,0,0,1,275.11,79.47Z" style="fill:#fff"></path><path d="M283.08,79.47a.43.43,0,0,1-.43.44.44.44,0,1,1,0-.87A.43.43,0,0,1,283.08,79.47Z" style="fill:#fff"></path><path d="M291.05,79.47a.44.44,0,0,1-.44.44.44.44,0,0,1,0-.87A.44.44,0,0,1,291.05,79.47Z" style="fill:#fff"></path><path d="M299,79.47a.43.43,0,0,1-.43.44.44.44,0,1,1,0-.87A.43.43,0,0,1,299,79.47Z" style="fill:#fff"></path><path d="M279.1,73.9a.44.44,0,0,1-.44.43.43.43,0,0,1-.43-.43.44.44,0,0,1,.43-.44A.44.44,0,0,1,279.1,73.9Z" style="fill:#fff"></path><path d="M287.06,73.9a.43.43,0,0,1-.43.43.44.44,0,0,1-.44-.43.44.44,0,0,1,.44-.44A.44.44,0,0,1,287.06,73.9Z" style="fill:#fff"></path><path d="M295,73.9a.43.43,0,0,1-.43.43.44.44,0,0,1-.44-.43.44.44,0,0,1,.44-.44A.44.44,0,0,1,295,73.9Z" style="fill:#fff"></path><path d="M267.15,91.06a.44.44,0,0,1-.44.43.43.43,0,0,1-.43-.43.44.44,0,0,1,.43-.44A.44.44,0,0,1,267.15,91.06Z" style="fill:#fff"></path><path d="M275.11,91.06a.43.43,0,0,1-.43.43.44.44,0,0,1-.44-.43.44.44,0,0,1,.44-.44A.44.44,0,0,1,275.11,91.06Z" style="fill:#fff"></path><path d="M283.08,91.06a.43.43,0,0,1-.43.43.44.44,0,0,1-.44-.43.44.44,0,0,1,.44-.44A.44.44,0,0,1,283.08,91.06Z" style="fill:#fff"></path><path d="M291.05,91.06a.44.44,0,0,1-.44.43.43.43,0,0,1-.43-.43.44.44,0,0,1,.43-.44A.44.44,0,0,1,291.05,91.06Z" style="fill:#fff"></path><path d="M299,91.06a.43.43,0,0,1-.43.43.44.44,0,0,1-.44-.43.44.44,0,0,1,.44-.44A.44.44,0,0,1,299,91.06Z" style="fill:#fff"></path><path d="M307,91.06a.43.43,0,0,1-.43.43.44.44,0,0,1-.44-.43.44.44,0,0,1,.44-.44A.44.44,0,0,1,307,91.06Z" style="fill:#fff"></path><path d="M271.13,85.48a.44.44,0,1,1-.87,0,.44.44,0,0,1,.87,0Z" style="fill:#fff"></path><path d="M279.1,85.48a.44.44,0,0,1-.44.44.44.44,0,0,1-.43-.44.43.43,0,0,1,.43-.43A.44.44,0,0,1,279.1,85.48Z" style="fill:#fff"></path><path d="M287.06,85.48a.44.44,0,0,1-.43.44.44.44,0,0,1-.44-.44.44.44,0,0,1,.44-.43A.43.43,0,0,1,287.06,85.48Z" style="fill:#fff"></path><path d="M295,85.48a.44.44,0,0,1-.43.44.44.44,0,0,1-.44-.44.44.44,0,0,1,.44-.43A.43.43,0,0,1,295,85.48Z" style="fill:#fff"></path><path d="M303,85.48a.44.44,0,0,1-.44.44.44.44,0,0,1-.43-.44.43.43,0,0,1,.43-.43A.44.44,0,0,1,303,85.48Z" style="fill:#fff"></path><path d="M267.15,102.64a.44.44,0,0,1-.44.44.44.44,0,0,1,0-.87A.44.44,0,0,1,267.15,102.64Z" style="fill:#fff"></path><path d="M275.11,102.64a.43.43,0,0,1-.43.44.44.44,0,1,1,0-.87A.43.43,0,0,1,275.11,102.64Z" style="fill:#fff"></path><path d="M283.08,102.64a.43.43,0,0,1-.43.44.44.44,0,1,1,0-.87A.43.43,0,0,1,283.08,102.64Z" style="fill:#fff"></path><path d="M291.05,102.64a.44.44,0,0,1-.44.44.44.44,0,0,1,0-.87A.44.44,0,0,1,291.05,102.64Z" style="fill:#fff"></path><path d="M299,102.64a.43.43,0,0,1-.43.44.44.44,0,1,1,0-.87A.43.43,0,0,1,299,102.64Z" style="fill:#fff"></path><path d="M307,102.64a.43.43,0,0,1-.43.44.44.44,0,1,1,0-.87A.43.43,0,0,1,307,102.64Z" style="fill:#fff"></path><path d="M271.13,97.07a.44.44,0,0,1-.87,0,.44.44,0,1,1,.87,0Z" style="fill:#fff"></path><path d="M279.1,97.07a.44.44,0,0,1-.44.43.44.44,0,0,1,0-.87A.44.44,0,0,1,279.1,97.07Z" style="fill:#fff"></path><path d="M287.06,97.07a.43.43,0,0,1-.43.43.44.44,0,1,1,0-.87A.43.43,0,0,1,287.06,97.07Z" style="fill:#fff"></path><path d="M295,97.07a.43.43,0,0,1-.43.43.44.44,0,1,1,0-.87A.43.43,0,0,1,295,97.07Z" style="fill:#fff"></path><path d="M303,97.07a.44.44,0,0,1-.44.43.44.44,0,0,1,0-.87A.44.44,0,0,1,303,97.07Z" style="fill:#fff"></path><path d="M259.18,114.22a.41.41,0,0,1-.21.37l.17-.55A.39.39,0,0,1,259.18,114.22Z" style="fill:#fff"></path><path d="M267.15,114.23a.44.44,0,0,1-.44.43.43.43,0,0,1-.43-.43.44.44,0,0,1,.43-.44A.44.44,0,0,1,267.15,114.23Z" style="fill:#fff"></path><path d="M275.11,114.23a.43.43,0,0,1-.43.43.44.44,0,0,1-.44-.43.44.44,0,0,1,.44-.44A.44.44,0,0,1,275.11,114.23Z" style="fill:#fff"></path><path d="M283.08,114.23a.43.43,0,0,1-.43.43.44.44,0,0,1-.44-.43.44.44,0,0,1,.44-.44A.44.44,0,0,1,283.08,114.23Z" style="fill:#fff"></path><path d="M291.05,114.23a.44.44,0,0,1-.44.43.43.43,0,0,1-.43-.43.44.44,0,0,1,.43-.44A.44.44,0,0,1,291.05,114.23Z" style="fill:#fff"></path><path d="M299,114.23a.43.43,0,0,1-.43.43.44.44,0,0,1-.44-.43.44.44,0,0,1,.44-.44A.44.44,0,0,1,299,114.23Z" style="fill:#fff"></path><path d="M307,114.23a.43.43,0,0,1-.43.43.44.44,0,0,1-.44-.43.44.44,0,0,1,.44-.44A.44.44,0,0,1,307,114.23Z" style="fill:#fff"></path><path d="M314.26,114.57a.41.41,0,0,1-.18-.35.41.41,0,0,1,0-.16Z" style="fill:#fff"></path><path d="M263.16,108.65a.44.44,0,0,1-.43.44.44.44,0,0,1-.44-.44.44.44,0,0,1,.44-.43A.43.43,0,0,1,263.16,108.65Z" style="fill:#fff"></path><circle cx="270.7" cy="108.65" r="0.43" style="fill:#fff"></circle><path d="M279.1,108.65a.44.44,0,0,1-.44.44.44.44,0,0,1-.43-.44.43.43,0,0,1,.43-.43A.44.44,0,0,1,279.1,108.65Z" style="fill:#fff"></path><path d="M287.06,108.65a.44.44,0,0,1-.43.44.44.44,0,0,1-.44-.44.44.44,0,0,1,.44-.43A.43.43,0,0,1,287.06,108.65Z" style="fill:#fff"></path><path d="M295,108.65a.44.44,0,0,1-.43.44.44.44,0,0,1-.44-.44.44.44,0,0,1,.44-.43A.43.43,0,0,1,295,108.65Z" style="fill:#fff"></path><path d="M303,108.65a.44.44,0,0,1-.44.44.44.44,0,0,1-.43-.44.43.43,0,0,1,.43-.43A.44.44,0,0,1,303,108.65Z" style="fill:#fff"></path><circle cx="310.53" cy="108.65" r="0.43" style="fill:#fff"></circle><path d="M259.18,125.81a.44.44,0,0,1-.44.44.44.44,0,0,1-.43-.44.43.43,0,0,1,.43-.43A.44.44,0,0,1,259.18,125.81Z" style="fill:#fff"></path><path d="M267.15,125.81a.44.44,0,0,1-.44.44.44.44,0,0,1-.43-.44.43.43,0,0,1,.43-.43A.44.44,0,0,1,267.15,125.81Z" style="fill:#fff"></path><path d="M275.11,125.81a.44.44,0,0,1-.43.44.44.44,0,0,1-.44-.44.44.44,0,0,1,.44-.43A.43.43,0,0,1,275.11,125.81Z" style="fill:#fff"></path><path d="M283.08,125.81a.44.44,0,0,1-.43.44.44.44,0,0,1-.44-.44.44.44,0,0,1,.44-.43A.43.43,0,0,1,283.08,125.81Z" style="fill:#fff"></path><path d="M291.05,125.81a.44.44,0,0,1-.44.44.44.44,0,0,1-.43-.44.43.43,0,0,1,.43-.43A.44.44,0,0,1,291.05,125.81Z" style="fill:#fff"></path><path d="M299,125.81a.44.44,0,0,1-.43.44.44.44,0,0,1-.44-.44.44.44,0,0,1,.44-.43A.43.43,0,0,1,299,125.81Z" style="fill:#fff"></path><path d="M307,125.81a.44.44,0,0,1-.43.44.44.44,0,0,1-.44-.44.44.44,0,0,1,.44-.43A.43.43,0,0,1,307,125.81Z" style="fill:#fff"></path><path d="M315,125.81a.44.44,0,0,1-.44.44.44.44,0,0,1-.43-.44.43.43,0,0,1,.43-.43A.44.44,0,0,1,315,125.81Z" style="fill:#fff"></path><path d="M263.16,120.23a.43.43,0,0,1-.43.44.44.44,0,1,1,0-.87A.43.43,0,0,1,263.16,120.23Z" style="fill:#fff"></path><circle cx="270.7" cy="120.23" r="0.43" style="fill:#fff"></circle><path d="M279.1,120.23a.44.44,0,0,1-.44.44.44.44,0,0,1,0-.87A.44.44,0,0,1,279.1,120.23Z" style="fill:#fff"></path><path d="M287.06,120.23a.43.43,0,0,1-.43.44.44.44,0,1,1,0-.87A.43.43,0,0,1,287.06,120.23Z" style="fill:#fff"></path><path d="M295,120.23a.43.43,0,0,1-.43.44.44.44,0,1,1,0-.87A.43.43,0,0,1,295,120.23Z" style="fill:#fff"></path><path d="M303,120.23a.44.44,0,0,1-.44.44.44.44,0,0,1,0-.87A.44.44,0,0,1,303,120.23Z" style="fill:#fff"></path><circle cx="310.53" cy="120.23" r="0.43" style="fill:#fff"></circle></g><g id="freepik--character-2--inject-98"><path d="M504.19,412.2c-2.07.62-60.66-1.32-62.84-2.81-.84-.55-1.06-9.11-1-19.45v-.32c0-2.13,4.85-37.87,4.85-37.87l41,1.23-8,37.47,0,.64s22.1,10.77,24.33,12.66S506.26,411.58,504.19,412.2Z" style="fill:#f7a9a0"></path><path d="M504.19,412.2c-2.07.62-60.66-1.32-62.84-2.81-.84-.56-1.06-9.11-1-19.45v-.33c0-.58.37-3.68.89-7.87l38.47,1.5-1.54,7.2,0,.64s22.1,10.78,24.33,12.67S506.26,411.58,504.19,412.2Z" style="fill:#ebebeb"></path><path d="M504.64,412.45c-2.09.63-61.26-1.34-63.47-2.85-.84-.56-1.05-9.19-1-19.63l38.15,1.16s22.32,10.88,24.56,12.79S506.73,411.83,504.64,412.45Z" style="fill:#c7c7c7"></path><path d="M503.87,410.06c-9.91-.58-49.94-1.95-59.78-1.77-.08,0-.08.06,0,.06,9.81.79,49.84,1.84,59.77,1.87C504.07,410.22,504.08,410.07,503.87,410.06Z" style="fill:#263238"></path><path d="M499.13,401.66a8,8,0,0,0-6,2.23,7.74,7.74,0,0,0-2.39,5.22c0,.06.11.06.12,0a9.21,9.21,0,0,1,8.28-7.32A.07.07,0,0,0,499.13,401.66Z" style="fill:#263238"></path><path d="M482.11,392.24c-4-.19-8.61,1.06-11.19,4.23-.1.12.08.26.2.2a55.29,55.29,0,0,1,11.05-3.94A.25.25,0,0,0,482.11,392.24Z" style="fill:#263238"></path><path d="M485.14,393.54c-4-.19-8.62,1.06-11.19,4.22-.1.13.07.27.19.21A54.67,54.67,0,0,1,485.19,394,.25.25,0,0,0,485.14,393.54Z" style="fill:#263238"></path><path d="M488.16,394.83c-4-.18-8.61,1.07-11.19,4.23-.1.12.08.26.2.21a54.67,54.67,0,0,1,11.05-3.94A.26.26,0,0,0,488.16,394.83Z" style="fill:#263238"></path><path d="M491.19,396.13c-4-.19-8.62,1.06-11.19,4.23-.1.12.07.26.19.2a55.29,55.29,0,0,1,11.05-3.94A.25.25,0,0,0,491.19,396.13Z" style="fill:#263238"></path><path d="M446.93,399c-4.45-.14-4.67,6.78-.21,6.92S451.4,399.09,446.93,399Z" style="fill:#263238"></path><path d="M486.76,381.79c-2-1.73-4.54-.19-5.84,1.5a20.81,20.81,0,0,0-3.94,10c0,.09,0,.12.12.12a.47.47,0,0,0,.7.34c2.89-1.86,6.21-3.49,8.45-6.18C487.55,386,488.61,383.43,486.76,381.79Zm-5.15,8.28c-1.4.95-2.84,1.82-4.21,2.82.78-1.95,1.47-3.93,2.44-5.8a20.32,20.32,0,0,1,1.54-2.63c.9-1.29,4.91-4.47,5.16-.14C486.68,386.71,483.27,388.93,481.61,390.07Z" style="fill:#263238"></path><path d="M467.07,394.47c3.43.64,7-.22,10.45-.64a.48.48,0,0,0,.32-.71.11.11,0,0,0,0-.17,20.75,20.75,0,0,0-9.44-5.2c-2.07-.47-5.05,0-5.45,2.57S465.06,394.09,467.07,394.47Zm-2.33-2.34c-2.57-3.5,2.55-3.6,4.07-3.19a21.28,21.28,0,0,1,2.86,1,61.53,61.53,0,0,1,5.58,2.91c-1.69.1-3.35.35-5,.51C470.2,393.6,466.16,394.05,464.74,392.13Z" style="fill:#263238"></path><path d="M486.07,389.67,436,385.49s15.16-60.36,12.44-64.44c-1.19-1.79-47.08,6.69-64.51-12.18-15.93-17.26,0-52.1,0-52.1h43s-.46,15.13,2.17,20.67c1.13,2.38,52.92-2.16,61.47,13.45C502,311.74,486.07,389.67,486.07,389.67Z" style="fill:#5CDB95"></path><path d="M442,375.86c5.52.26,11.06.47,16.57.89s11.05.94,16.56,1.56l4.66.54c.74.09,1.48.18,2.22.29a16.84,16.84,0,0,1,2.24.35c.08,0,.05.13,0,.13a29.9,29.9,0,0,1-4.23-.13l-4-.22q-4.12-.25-8.23-.54c-5.5-.4-11-1-16.45-1.56-3.11-.33-6.22-.68-9.33-1C441.77,376.12,441.77,375.85,442,375.86Z" style="fill:#263238"></path><path d="M388.79,265.55c.15-1.45.27-2.9.33-4.35a.09.09,0,0,1,.17,0c0,11-3.83,22.15-.83,33.09a21.2,21.2,0,0,0,8.23,11.84,32.44,32.44,0,0,0,14.19,5.26c5.77.83,11.63.67,17.44.64l18.11-.09,4.47,0a35.11,35.11,0,0,1,4.23,0,2.27,2.27,0,0,1,2.14,1.77,15.65,15.65,0,0,1,.06,3.87q-.27,8.73-1.25,17.4a212.51,212.51,0,0,1-6.7,34.09c-.4,1.38-.81,2.76-1.23,4.13a.14.14,0,0,1-.26-.08,239.78,239.78,0,0,0,7-34.3c.74-5.77,1.24-11.57,1.55-17.38.08-1.44.14-2.87.19-4.31,0-.7.06-1.4.06-2.1a3.14,3.14,0,0,0-.31-1.74,2.06,2.06,0,0,0-1.81-.72c-.79,0-1.58,0-2.37,0l-4.47,0-18.1.12c-5.8,0-11.64.23-17.41-.45a35.89,35.89,0,0,1-14.32-4.46,22,22,0,0,1-9.24-10.38C384.38,287.16,387.68,276.09,388.79,265.55Z" style="fill:#263238"></path><path d="M384,308.87c10.8,11.69,32.51,12.88,47.75,12.52l-17.44-64.62H384S368,291.61,384,308.87Z" style="fill:#263238"></path><path d="M295.36,409.7c.23-2.15,24.91-55.32,27.13-56.75.84-.56,8.8,2.59,18.31,6.66l.29.13c2,.84,38.14,10.56,38.14,10.56l-16,34.8-37.64-10.87-.58-.29s-18.55,16.13-21.16,17.44S295.11,411.84,295.36,409.7Z" style="fill:#f7a9a0"></path><path d="M348,361.76l-16.49,34.17-5.92-1.71-.58-.28s-18.55,16.13-21.16,17.44-8.71.46-8.46-1.68,24.91-55.33,27.13-56.75c.84-.56,8.8,2.58,18.31,6.66l.29.13C341.58,360,344.25,360.72,348,361.76Z" style="fill:#ebebeb"></path><path d="M295.15,410c.23-2.17,25-56,27.2-57.41.85-.56,8.89,2.59,18.5,6.67L325,394s-18.68,16.35-21.31,17.69S294.91,412.13,295.15,410Z" style="fill:#c7c7c7"></path><path d="M297.65,410.18c4.37-8.91,21.14-45.27,24.78-54.42,0-.07,0-.09-.05,0-4.53,8.74-21,45.24-24.87,54.38C297.42,410.31,297.56,410.37,297.65,410.18Z" style="fill:#263238"></path><path d="M307.23,409.07a8,8,0,0,0,.28-6.41,7.75,7.75,0,0,0-3.89-4.23c-.06,0-.1.08-.05.11A9.21,9.21,0,0,1,307.11,409C307.09,409.09,307.19,409.14,307.23,409.07Z" style="fill:#263238"></path><path d="M322.5,397c1.71-3.58,2.36-8.35.44-11.95-.07-.14-.27,0-.26.1a54.72,54.72,0,0,1-.65,11.71A.25.25,0,0,0,322.5,397Z" style="fill:#263238"></path><path d="M320.14,399.32c1.71-3.59,2.36-8.36.44-12-.08-.14-.28,0-.27.1a54.77,54.77,0,0,1-.65,11.72A.25.25,0,0,0,320.14,399.32Z" style="fill:#263238"></path><path d="M317.77,401.6c1.71-3.58,2.36-8.35.44-12-.07-.14-.27,0-.27.1a54.67,54.67,0,0,1-.64,11.71A.25.25,0,0,0,317.77,401.6Z" style="fill:#263238"></path><path d="M315.4,403.89c1.71-3.59,2.36-8.35.44-11.95-.07-.14-.27,0-.26.1a54.72,54.72,0,0,1-.65,11.71A.25.25,0,0,0,315.4,403.89Z" style="fill:#263238"></path><path d="M329.94,362c1.85-4.06-4.45-6.94-6.3-2.88S328.09,366.06,329.94,362Z" style="fill:#263238"></path><path d="M330.34,405.36c2.35-1.13,1.93-4.11.88-6a20.78,20.78,0,0,0-7.72-7.52.11.11,0,0,0-.16.06.49.49,0,0,0-.59.52c.6,3.38.82,7.08,2.43,10.18C326.13,404.45,328.11,406.43,330.34,405.36Zm-5.63-8c-.34-1.65-.59-3.32-1-5a62.28,62.28,0,0,1,4.41,4.49,21.86,21.86,0,0,1,1.83,2.44c.83,1.33,2.22,6.26-1.87,4.81C325.84,403.38,325.1,399.38,324.71,397.4Z" style="fill:#263238"></path><path d="M326.28,382.29c-1.92,2.92-2.52,6.58-3.46,9.88-.1.35.24.59.53.58a.11.11,0,0,0,.15.08,20.94,20.94,0,0,0,8.45-6.69c1.24-1.73,2-4.65-.26-6S327.41,380.59,326.28,382.29Zm3.06-1.23c4.22-1,2.33,3.74,1.37,5a22,22,0,0,1-2.07,2.24c-1.52,1.47-3.21,2.7-4.85,4,.56-1.59,1-3.22,1.48-4.84C325.87,385.53,327,381.62,329.34,381.06Z" style="fill:#263238"></path><path d="M426.7,256.77s-.67,20.84-3.79,31.11c0,0-3.41,1.79-4.43,2.43,0,0,25.89,62,24.42,85.86-.48,7.83-9.34,20.68-18.29,26.25-15.83,9.85-93.11,1.21-93.11,1.21l11.21-46.47s48.86,2.72,50.1.08c1.56-3.36-8.17-29.43-15.94-50.63-.78-2.14-8.6-10-7.69-24.32a74.06,74.06,0,0,1,6.73-25.52Z" style="fill:#5CDB95"></path><path d="M418.57,283c.1-1.48.21-2.95.34-4.43.29-3.36.64-6.74,1.23-10.06.05-.26.42-.16.39.09-.22,2.61-.52,5.22-.77,7.83s-.55,5.21-.6,7.81c0,.78,0,2.11,1,2.32,1.29.29,1.9-1.4,2.21-2.33a42.2,42.2,0,0,0,1.62-7.12c.43-2.74.65-5.51.92-8.27a.09.09,0,0,1,.17,0c0,5.48-.06,11.21-2.1,16.38a3,3,0,0,1-2.27,2.17h-.06a.3.3,0,0,1,0,.1c0,.15-.07.3-.09.45s-.05.26-.08.39-.09.53-.16.79a.2.2,0,0,1-.4,0,.18.18,0,0,1-.11-.16,4.37,4.37,0,0,1,.35-1.55,2,2,0,0,1-1.41-1.19A6.88,6.88,0,0,1,418.57,283Z" style="fill:#263238"></path><path d="M422.52,287.9a78.3,78.3,0,0,0-12.07,6.32.14.14,0,0,0,.13.25c4.07-2,8.23-3.88,12.18-6.08A.27.27,0,0,0,422.52,287.9Z" style="fill:#263238"></path><path d="M388,278.36a19.57,19.57,0,0,0,3.15-.24,26.37,26.37,0,0,0,2.75-.7c1.69-.5,3.75-1.09,5-2.43a17.89,17.89,0,0,0,2.83-4.88,19.78,19.78,0,0,0,1.67-5.83.07.07,0,0,1,.14,0,29.83,29.83,0,0,1-1,6.16,19.29,19.29,0,0,1-1.16,2.92,8.12,8.12,0,0,1-7.15,5.19,17.11,17.11,0,0,1-6.22,0C387.79,278.57,387.84,278.37,388,278.36Z" style="fill:#263238"></path><path d="M351.62,362.33c10.66-.2,19.35.71,30,.71h12.08a11.8,11.8,0,0,0,2.78-.25,3.51,3.51,0,0,0,2.15-1.28c.7-1,.32-2.4.08-3.54q-.81-3.76-1.8-7.48c-2.69-10.06-6.19-19.9-9.49-29.78l-5.1-15.26c-.42-1.24-.83-2.48-1.35-3.68a32.24,32.24,0,0,0-1.67-3.19,29.87,29.87,0,0,1-2.9-6.29c-2.88-9.48-.11-19.29,3.26-28.23.45-1.2.92-2.39,1.41-3.58a.07.07,0,0,1,.14,0c-3.08,9.44-6.74,19.26-4.68,29.34a24.32,24.32,0,0,0,2.46,6.77c.59,1.09,1.24,2.13,1.82,3.22a26.8,26.8,0,0,1,1.48,3.44c1.81,5,3.41,10.09,5.1,15.13,3.37,10,6.91,20,9.72,30.24q1,3.81,1.92,7.67c.42,1.89,1.37,4.47-.28,6-1.22,1.15-3.12,1.3-4.7,1.31-2.66,0-5.31,0-8,0-10.81,0-33.13-.94-34.48-1A.19.19,0,0,1,351.62,362.33Z" style="fill:#263238"></path><path d="M339.7,401.47c1.05-5.43,2.05-10.88,3.25-16.28s2.51-10.8,3.91-16.16c.39-1.52.8-3,1.21-4.54.19-.72.38-1.44.59-2.16a18,18,0,0,1,.67-2.16c0-.08.13,0,.13,0a29.47,29.47,0,0,1-.74,4.16c-.27,1.31-.52,2.63-.79,3.93q-.82,4.05-1.71,8.07c-1.18,5.38-2.51,10.72-3.88,16.06q-1.17,4.54-2.36,9.08C339.94,401.68,339.67,401.65,339.7,401.47Z" style="fill:#263238"></path><path d="M443.08,368.43a35.51,35.51,0,0,0-1.31-6.47c0-.07-.14-.06-.13,0,.21,2.17.64,4.29.83,6.47a38.11,38.11,0,0,1,.08,6.23,27.87,27.87,0,0,1-1,5.66,42.15,42.15,0,0,1-2.2,5.55c0,.07.06.16.12.09,2.61-2.86,3.56-7.14,3.83-10.88A33.79,33.79,0,0,0,443.08,368.43Z" style="fill:#263238"></path><path d="M428.29,275l-3,.24-.33,0-.71.06-4.41.36-.46,0-.19,0-21.66,1.76-5.55.45-4.25.34-.69.06-9.51.76-1.28.1-.72.06-6.12.47a74.58,74.58,0,0,1,6.51-23h51S426.61,268.39,428.29,275Z" style="fill:#263238"></path><path d="M414,162.59c-13.19,8.85-19.09,27.22-9.78,46.06,8.48,17.14,29.62,25.5,41.45,20.46,12.55-5.35,15.66-19.72,9.37-27.87-6.07-7.87-15.45-9.79-18.37-17.13-1.39-3.51-.47-9.83-2.31-15.11C432.28,163.11,422.45,156.91,414,162.59Z" style="fill:#263238"></path><path d="M432.76,231.09A38.5,38.5,0,0,1,415,223.62a42.66,42.66,0,0,1-12.32-15,36.67,36.67,0,0,1-4-19,36.21,36.21,0,0,1,6.5-18.14,38.08,38.08,0,0,0-5.91,18.18,35.68,35.68,0,0,0,.85,9.55,38.79,38.79,0,0,0,3.29,9,46.31,46.31,0,0,0,5.16,8.1,41.66,41.66,0,0,0,15.06,11.76A37,37,0,0,0,432.76,231.09Z" style="fill:#263238"></path><path d="M457.11,203a19,19,0,0,0-3.46-4.86,25.53,25.53,0,0,0-4.59-3.77c-1.7-1.08-3.36-2.21-5-3.4a26.07,26.07,0,0,1-4.52-4.08,17.47,17.47,0,0,1-1.8-2.5,11.56,11.56,0,0,1-1.08-2.9,52.21,52.21,0,0,1-.86-6,23.46,23.46,0,0,0-1.31-5.8,16.5,16.5,0,0,0-3.09-5.08,15.68,15.68,0,0,1,3.44,4.94,23.8,23.8,0,0,1,1.55,5.86c.32,2,.47,4,1,5.9a11,11,0,0,0,1,2.71,15.58,15.58,0,0,0,1.74,2.36c2.54,3,6,5.17,9.25,7.48a26,26,0,0,1,4.55,4A17.89,17.89,0,0,1,457.11,203Z" style="fill:#263238"></path><path d="M414.82,209.74c10.9,9.91,30.6,24.18,42.55,26.43,9.55,1.79,34.83-6.7,45.7-13.72,3.84-2.48-8.37-16.33-13.16-17.71-2.88-.83-28,11.45-32.28,10.85-6.5-.91-23.2-9.15-36.73-13.89C413.77,199.2,408,203.57,414.82,209.74Z" style="fill:#f7a9a0"></path><path d="M481.66,207.7s4-5.71,6.28-7.83,13.79-6.88,15-4.45c1.51,3.13-4.58,7.18-7.83,8.77,0,0,3.5,7.24-.25,11.09S481.66,207.7,481.66,207.7Z" style="fill:#f7a9a0"></path><path d="M499.18,224.47c2.44-1.1,13.17-7.08,15.78-9.42s9.64-9.59,8-11.77-3.81-.22-3.81-.22,2.49-3.54.69-5.59-5.16,1.11-5.16,1.11,2.29-3.81.35-5.73-4.79,1.83-4.79,1.83,2.25-3.39,0-4.3c-2.72-1.09-6.16,5.63-9.24,8-.7.54-14.93,9.86-14.93,9.86Z" style="fill:#f7a9a0"></path><path d="M510.54,194.36C508,199.3,506,201,501.32,203.8c-.1,0,0,.2.06.15,4.87-2.29,7.65-4.1,9.41-9.47C510.87,194.21,510.66,194.13,510.54,194.36Z" style="fill:#263238"></path><path d="M514.93,198.19c-3.1,4.9-5.21,6.78-9.94,10.05-.06,0,0,.16.08.12,4.9-2.82,7.63-4.68,10.08-10C515.26,198.14,515.07,198,514.93,198.19Z" style="fill:#263238"></path><path d="M519,203.22c-3.34,4.52-5.57,6.69-10.56,9.27a.1.1,0,0,0,.08.19,18.63,18.63,0,0,0,10.6-9.35C519.25,203,519.17,202.93,519,203.22Z" style="fill:#263238"></path><path d="M503,196.41c-.68,3.85-5.07,5.67-8.1,7.45a.31.31,0,0,0-.07.52c1.26,3.13,2.13,7.92.18,10.9a.08.08,0,0,0,.13.1c2.53-2.92,2.06-7.69.45-11,3.14-1.77,7.47-3.79,7.45-7.93C503.07,196.39,503,196.39,503,196.41Z" style="fill:#263238"></path><path d="M445.86,209.21l-12,17.9s-13-10-19-16.14-6.3-13.12,6.54-10.25C432.25,203.15,445.86,209.21,445.86,209.21Z" style="fill:#5CDB95"></path><path d="M441.18,207.88a43.7,43.7,0,0,0-2.65,3.7q-1.29,1.88-2.55,3.78c-1.68,2.56-3.29,5.13-4.83,7.77,0,.09.06.18.12.1,1.83-2.49,3.56-5,5.25-7.61.83-1.27,1.65-2.56,2.46-3.85a42.27,42.27,0,0,0,2.29-3.84C441.3,207.87,441.22,207.83,441.18,207.88Z" style="fill:#263238"></path><path d="M439.76,218.3l-5.91,8.81s-13-10-19-16.14c-4.63-4.74-5.87-9.95-.34-10.8C420.63,204.52,432.1,212.64,439.76,218.3Z" style="fill:#263238"></path><path d="M431.64,248.4l-.57,24.65s-48.46-1.77-60.29-4.64c0,0,19.11-53.65,34.34-65.45,7.62-5.9,15.09-4.11,19.08,1.6,1,1.44,12.3,23.11,12.6,30.72C437,242,431.64,248.4,431.64,248.4Z" style="fill:#5CDB95"></path><polygon points="411 225.44 421.98 224.49 422.91 233.11 418.48 236.71 411.85 234.48 411 225.44" style="opacity:0.1"></polygon><path d="M412.52,200.58c.11,1,5.79,10.44,10.18,10.44,1,0,.45-10.06.45-10.06l.2-.56,2.77-7.82-8.71-7.2-1.27-1s-.62,2.19-1.36,4.93c0,.13-.07.25-.1.39s-.09.3-.13.44c-.11.41-.23.82-.34,1.24s-.16.63-.24,1l-.24,1A54.28,54.28,0,0,0,412.52,200.58Z" style="fill:#f7a9a0"></path><path d="M414.78,189.34a16.68,16.68,0,0,0,8.57,11.06l2.77-7.82-8.71-7.2-1.27-1S415.52,186.6,414.78,189.34Z" style="fill:#263238"></path><path d="M439,180c2,14.42-6.36,17.27-9.47,17.71-2.82.39-12.48,1.39-16-12.74s2.53-19.63,8.94-20.88S437,165.54,439,180Z" style="fill:#f7a9a0"></path><path d="M435.8,177c-.34,0-.66,0-1-.06a1.61,1.61,0,0,1-1-.27.51.51,0,0,1-.09-.62,1.31,1.31,0,0,1,1.21-.48,1.88,1.88,0,0,1,1.27.5A.55.55,0,0,1,435.8,177Z" style="fill:#263238"></path><path d="M426.33,178.37a9.71,9.71,0,0,0,.95-.34,1.61,1.61,0,0,0,.89-.54.5.5,0,0,0-.09-.62,1.25,1.25,0,0,0-1.29-.12,1.9,1.9,0,0,0-1.08.82A.55.55,0,0,0,426.33,178.37Z" style="fill:#263238"></path><path d="M429,181.73s-.07.06-.06.1c.2,1,.25,2.12-.58,2.59,0,0,0,.07,0,.06C429.44,184.15,429.34,182.62,429,181.73Z" style="fill:#263238"></path><path d="M428,180.86c-1.59.14-1.19,3.31.28,3.18S429.29,180.74,428,180.86Z" style="fill:#263238"></path><path d="M427.36,181.1c-.26.22-.49.57-.82.65s-.71-.21-1-.5c0,0,0,0,0,0,.07.61.38,1.21,1,1.21s1-.58,1-1.21C427.58,181.17,427.46,181,427.36,181.1Z" style="fill:#263238"></path><path d="M434.41,180.84s.09,0,.09.08c.08,1,.35,2.1,1.28,2.32,0,0,0,.06,0,.06C434.67,183.27,434.34,181.79,434.41,180.84Z" style="fill:#263238"></path><path d="M435.17,179.71c1.57-.31,2.07,2.85.62,3.13S433.85,180,435.17,179.71Z" style="fill:#263238"></path><path d="M435.86,179.81c.28.13.57.39.88.36s.55-.41.72-.77c0,0,0,0,.05,0,.11.61,0,1.27-.55,1.47s-1-.26-1.22-.84C435.69,179.94,435.75,179.76,435.86,179.81Z" style="fill:#263238"></path><path d="M430.08,189.63c.25.21.52.51.88.51a2.64,2.64,0,0,0,1-.33s.06,0,.05.05a1.33,1.33,0,0,1-1.22.63,1,1,0,0,1-.84-.81C430,189.63,430,189.6,430.08,189.63Z" style="fill:#263238"></path><path d="M433.69,185.51a21.51,21.51,0,0,1,.5,2.13c0,.07-.15.12-.38.17h0a3.32,3.32,0,0,1-3.36-.78c-.06-.06,0-.15.09-.11a5,5,0,0,0,3.12.44c0-.2-.78-2.44-.67-2.46a5.86,5.86,0,0,1,1.62.14c-.76-3-2-5.9-2.71-8.92a.1.1,0,0,1,.18-.07,50.1,50.1,0,0,1,3.32,9.48C435.48,185.91,434,185.59,433.69,185.51Z" style="fill:#263238"></path><path d="M414.65,186.13c1.58-.42,4.85-5.65,3.42-13.38,0,0,.8,7,.49,8.15s1.82-2.94.76-9.19a25.73,25.73,0,0,0,7.05,2c3.1.23,4.89-.16,5.06-.41s-4.43-.75-5.87-1.86c0,0,8.54,2.06,12.2,1.61.42-.06-.81-8.72-7.1-11.23s-14.33,3.18-16.24,5.95c0,0-2.7,1-4.9,5.69S413,186.58,414.65,186.13Z" style="fill:#263238"></path><path d="M417.16,185s-3.21-4.53-5.27-3.38.38,7.72,2.81,8.6A2.46,2.46,0,0,0,418,188.9Z" style="fill:#f7a9a0"></path><path d="M412.64,183.5s-.05.05,0,.07a6.24,6.24,0,0,1,3.24,3.87,1.37,1.37,0,0,0-2-.36s0,.1.05.09a1.53,1.53,0,0,1,1.67.52,7.54,7.54,0,0,1,.8,1.34c.08.16.36.07.3-.1l0,0C416.66,186.72,415,183.71,412.64,183.5Z" style="fill:#263238"></path><path d="M400.25,211.92c-6,13.39-16.39,41.67-13,52,4.48,13.54,25.08,29.7,34.11,30.41,3.2.25,7-28.82,3.69-27.82-2.2.67-14-6.15-15.36-8.34s1.12-30.37,2.07-42.78C413,199.71,405.34,200.6,400.25,211.92Z" style="fill:#f7a9a0"></path><path d="M390.58,232.88l21.35,3s1.27-16.35.72-24.95-5.55-13.45-12-2C395.17,218.71,390.58,232.88,390.58,232.88Z" style="fill:#5CDB95"></path><path d="M411.06,231.47a44.63,44.63,0,0,0-4.47-.86c-1.5-.26-3-.5-4.5-.73-3-.45-6-.84-9.08-1.14-.1,0-.14.14,0,.16,3,.62,6,1.13,9.11,1.58,1.5.22,3,.43,4.52.62a44.48,44.48,0,0,0,4.45.48C411.12,231.58,411.12,231.49,411.06,231.47Z" style="fill:#263238"></path><path d="M413.4,220.27c-.2,1-.34,2-.48,3,.05-2.39,0-4.8-.14-7.19a0,0,0,1,0,0,0c-.24,3.31-.34,6.63-.5,9.94s-.37,6.54-.42,9.82c-.13,0-1.41-.14-1.55-.16a.08.08,0,1,0,0,.16c.13,0,1.76.31,1.77.26s.67-6.68.8-10c0-.43,0-.87,0-1.3a43.53,43.53,0,0,0,.65-4.52A.06.06,0,0,0,413.4,220.27Z" style="fill:#263238"></path><path d="M396.13,217.84c0-.05-.07-.09-.1,0-.49,1.12-1,2.25-1.43,3.39,0-.08,0-.17,0-.25.13-.57.26-1.14.4-1.71,0-.08-.1-.11-.13,0a12.56,12.56,0,0,0-.46,1.7c-.08.37-.13.75-.19,1.13-.41,1-.81,2.06-1.19,3.09-.92,2.53-2.58,7.7-2.54,7.76s1.48.21,1.51.22,0-.05,0-.07-1.13-.24-1.22-.24c1.05-2.38,1.77-4.87,2.64-7.33S395.23,220.39,396.13,217.84Z" style="fill:#263238"></path><path d="M420.71,267.88s9.91-3.18,16.48-4.95c3.67-1,10.11-2.12,13.14-1.62,4.53.76,23,6.83,21.61,11.33-1.24,4.08-16.44-3.14-16.44-3.14s16,5.93,13.58,10.57-18.48-5.81-18.48-5.81,16.28,6.46,13,10.85c-2.44,3.32-17.54-5.32-17.54-5.32s14,5.66,11.59,9.18c-2.61,3.88-17.05-3.21-17.05-3.21-7.51,7.93-14.34,8.63-19.25,8.56C420.2,294.3,420.71,267.88,420.71,267.88Z" style="fill:#f7a9a0"></path><path d="M450.11,267.09c1.9.63,3.83,1.26,5.67,2.05s3.65,1.66,5.41,2.62a34.08,34.08,0,0,1,6.48,4.4c-3.75-2.77-10.29-5.73-12.13-6.52s-3.63-1.68-5.46-2.48C450,267.14,450.06,267.08,450.11,267.09Z" style="fill:#263238"></path><path d="M447.12,273.68c2.39.91,4.8,1.72,7.15,2.74s4.48,2.17,6.75,3.34c.17.09.07.15-.11.07-2.31-1.08-4.54-1.89-6.86-2.94s-4.61-2.19-7-3.15C447.05,273.72,447.08,273.67,447.12,273.68Z" style="fill:#263238"></path><path d="M443.53,278.88a56.64,56.64,0,0,1,10.62,5c.17.09,0,.16-.15.07-3.5-1.73-6.24-3.12-10.51-5C443.42,279,443.45,278.85,443.53,278.88Z" style="fill:#263238"></path></g><g id="freepik--character-3--inject-98"><path d="M549.53,423.84c-31.32,0-56.8-31.8-56.8-70.89s25.48-70.89,56.8-70.89,56.8,31.8,56.8,70.89S580.85,423.84,549.53,423.84Zm0-136.1c-28.19,0-51.11,29.25-51.11,65.21s22.92,65.2,51.11,65.2,51.11-29.25,51.11-65.2S577.71,287.74,549.53,287.74Z" style="fill:#263238"></path><path d="M554,415.79c-27.71,0-50.25-28.19-50.25-62.84S526.3,290.1,554,290.1s50.25,28.2,50.25,62.85S581.72,415.79,554,415.79Zm0-121.63c-25.47,0-46.19,26.37-46.19,58.79s20.72,58.78,46.19,58.78S600.2,385.36,600.2,353,579.48,294.16,554,294.16Z" style="fill:#c7c7c7"></path><rect x="470.76" y="268.7" width="83.93" height="32.4" style="fill:#a6a6a6"></rect><path d="M541.08,379.05H470.76V375h70.32a11.56,11.56,0,0,0,11.54-11.54V206.27a15.62,15.62,0,0,1,15.6-15.6h9.47v4.06h-9.47a11.54,11.54,0,0,0-11.54,11.54V363.45A15.62,15.62,0,0,1,541.08,379.05Z" style="fill:#c7c7c7"></path><path d="M472.79,401h-4.06V267a14.06,14.06,0,0,1,14-14h71.88V257H482.77a10,10,0,0,0-10,10Z" style="fill:#c7c7c7"></path><ellipse cx="552.08" cy="352.95" rx="8.15" ry="10.27" style="fill:#c7c7c7"></ellipse><path d="M562.83,353c0,5.67-3.64,10.27-8.14,10.27s-8.15-4.6-8.15-10.27,3.65-10.28,8.15-10.28S562.83,347.27,562.83,353Z" style="fill:#dbdbdb"></path><rect x="554.69" y="350.92" width="73.77" height="4.06" style="fill:#c7c7c7"></rect><ellipse cx="469.24" cy="412.42" rx="10.6" ry="13.37" style="fill:#c7c7c7"></ellipse><ellipse cx="472.64" cy="412.42" rx="10.6" ry="13.37" style="fill:#dbdbdb"></ellipse><rect x="565.12" y="188.52" width="25.15" height="8.07" style="fill:#263238"></rect><rect x="556.75" y="207.14" width="71.71" height="77.76" style="fill:#455a64"></rect><rect x="452.35" y="405.33" width="94.19" height="12.15" style="fill:#263238"></rect><path d="M507.82,375.42s0,7.9,0,7.93c0,7.39-.07,13.86-.43,17.21a.11.11,0,0,1,0,.05,10.36,10.36,0,0,1-.53,2.28l0,.05c-2.19,1.5-61.2,3.52-63.28,2.9s-.47-6.61,1.76-8.51,24.48-12.78,24.48-12.78l-.11-8.05Z" style="fill:#c7c7c7"></path><path d="M443.53,405.84c2.08.62,61.08-1.4,63.28-2.9.84-.56,1.05-9.17,1-19.59V383l-38.08.87,0,.65s-22.24,10.87-24.48,12.78S441.44,405.22,443.53,405.84Z" style="fill:#455a64"></path><path d="M444.12,403.53c9.94-.59,50.07-2,59.94-1.83.08,0,.08.06,0,.06-9.84.8-50,1.89-59.94,1.93C443.91,403.69,443.91,403.54,444.12,403.53Z" style="fill:#263238"></path><path d="M466.57,384.77c3.89-.86,8.7-.42,11.78,2.26.12.11,0,.27-.16.24a54.72,54.72,0,0,0-11.59-2A.25.25,0,0,1,466.57,384.77Z" style="fill:#263238"></path><path d="M463.8,386.57c3.89-.86,8.7-.42,11.79,2.26.12.11,0,.27-.16.24a54.94,54.94,0,0,0-11.59-2A.25.25,0,0,1,463.8,386.57Z" style="fill:#263238"></path><path d="M461,388.37c3.89-.86,8.69-.43,11.78,2.26.12.1,0,.27-.16.24a54.09,54.09,0,0,0-11.59-2A.25.25,0,0,1,461,388.37Z" style="fill:#263238"></path><path d="M594,231.43H571.34l-6.23,8.2s-65.68,10.8-79.64,28.8c-16,20.67-20.38,115.36-20.38,115.36h46s5.52-85.33,10.22-91.48S591,285,603.54,275.63s2.89-44.2,2.89-44.2Z" style="fill:#263238"></path><path d="M509.23,375.4a39.9,39.9,0,0,0-4.09-.25c-1.34,0-2.69-.08-4-.12-2.77-.08-5.53-.08-8.3-.1-5.52,0-11.05-.07-16.58,0-1.55,0-3.1,0-4.65.06s-3.12.05-4.65.24c-.07,0-.1.11,0,.12a73.15,73.15,0,0,0,8.11.38c2.76.07,5.53.12,8.29.15q8.29.11,16.59.08c1.55,0,3.1,0,4.65-.08a42.45,42.45,0,0,0,4.65-.21C509.33,375.65,509.39,375.42,509.23,375.4Z" style="fill:#455a64"></path><path d="M600.09,269.67c-9.53,3.91-19.65,6.2-29.78,7.91s-20.48,2.82-30.73,4.16a106.42,106.42,0,0,0-15.38,2.69,17.26,17.26,0,0,0-6.23,2.82,10.06,10.06,0,0,0-3.13,5.89c-1.18,5.29-2.05,10.67-3,16s-1.79,10.89-2.6,16.35c-1.64,11-3.68,31.08-5.1,42.1-.17,1.33-.32,2.66-.47,4,0,.13.19.19.21,0,1.62-10.84,3.71-30.78,5.34-41.62s3.39-21.68,5.43-32.45c.45-2.39.72-5,1.74-7.22a8.86,8.86,0,0,1,5.18-4.38c4.84-1.9,10.09-2.55,15.2-3.26,10.1-1.41,20.25-2.49,30.32-4.14a161.41,161.41,0,0,0,29.52-7.45c1.17-.43,2.33-.87,3.48-1.34C600.2,269.76,600.17,269.64,600.09,269.67Z" style="fill:#455a64"></path><path d="M542.45,377.4v7.93c0,7.39-.06,13.86-.43,17.21v0a9.55,9.55,0,0,1-.54,2.28.1.1,0,0,1,0,.05c-2.19,1.5-61.2,3.52-63.28,2.9s-.47-6.61,1.76-8.51,24.48-12.78,24.48-12.78l-.11-8Z" style="fill:#c7c7c7"></path><path d="M478.16,407.82c2.09.62,61.09-1.4,63.28-2.9.85-.56,1-9.17,1-19.59,0-.11,0-.21,0-.32l-38.08.87,0,.65s-22.24,10.87-24.48,12.78S476.08,407.2,478.16,407.82Z" style="fill:#455a64"></path><path d="M478.75,405.51c9.94-.59,50.07-2,59.94-1.83.08,0,.08.06,0,.06-9.83.8-50,1.89-59.93,1.93C478.55,405.67,478.54,405.52,478.75,405.51Z" style="fill:#263238"></path><path d="M501.2,386.75c3.89-.86,8.7-.42,11.79,2.26.12.11,0,.27-.16.24a54.83,54.83,0,0,0-11.59-2A.25.25,0,0,1,501.2,386.75Z" style="fill:#263238"></path><path d="M498.44,388.55c3.89-.86,8.69-.42,11.78,2.26.12.11,0,.27-.16.24a54.72,54.72,0,0,0-11.59-2A.25.25,0,0,1,498.44,388.55Z" style="fill:#263238"></path><path d="M495.67,390.35c3.89-.86,8.7-.43,11.78,2.26.12.11,0,.27-.16.24a54.09,54.09,0,0,0-11.59-2A.25.25,0,0,1,495.67,390.35Z" style="fill:#263238"></path><path d="M499.83,385.81l46.8,0s-5.29-85,2.89-91.09c10.45-7.76,42.72-6.48,61.05-19.2,14.88-10.32,4.44-44.13,4.44-44.13h-41.4s-5.2,6.33-6.16,10.05c0,0-46.69,13.65-58.61,28.77C492.86,290.5,499.83,385.81,499.83,385.81Z" style="fill:#263238"></path><path d="M565.7,242.46a258.53,258.53,0,0,0-30.18,10.3,107.36,107.36,0,0,0-14,7.13c-4.41,2.69-8.84,5.69-12.14,9.71a34.51,34.51,0,0,0-6.3,13.09,117.49,117.49,0,0,0-2.76,15.7,311.45,311.45,0,0,0-2.2,34.81c-.07,5.83,0,11.66.1,17.49s1,30.37,1.1,31.81c0,.08.13.08.13,0,.11-11.54-.35-32.94-.33-44.48a338.84,338.84,0,0,1,1.62-34.46c.58-5.51,1.27-11,2.35-16.47A42.08,42.08,0,0,1,508,273.27c2.68-4.43,6.69-7.71,11-10.55a108.44,108.44,0,0,1,13.68-7.66A233.5,233.5,0,0,1,562.05,244c1.25-.4,2.5-.83,3.75-1.24A.16.16,0,0,0,565.7,242.46Z" style="fill:#455a64"></path><path d="M572.18,242.47c-.64-.17-1.26-.41-1.92-.53s-1.32-.22-2-.31c-1.29-.17-2.59-.31-3.89-.43-2.65-.25-5.31-.27-8-.44-.08,0-.08.12,0,.13,2.68.17,5.34.65,8,1,1.28.19,2.57.39,3.85.6.66.1,1.32.21,2,.29s1.26.06,1.89.11C572.4,243,572.43,242.53,572.18,242.47Z" style="fill:#263238"></path><path d="M575.92,232.08c-.89,1.28-1.72,2.61-2.58,3.91l-1.26,1.92a12.81,12.81,0,0,1-1.18,1.66c-.78.89-2.5,1.46-2.93-.07a2.91,2.91,0,0,1,.27-1.9c.27-.64.57-1.27.89-1.88.74-1.45,1.61-2.82,2.45-4.22,0-.07-.06-.14-.12-.08a21.85,21.85,0,0,0-2.91,4c-.74,1.25-1.74,2.75-1.39,4.27a2.08,2.08,0,0,0,3,1.38c1.37-.63,2.07-2.29,2.79-3.51,1.05-1.79,2.15-3.56,3.16-5.37A.09.09,0,0,0,575.92,232.08Z" style="fill:#263238"></path><path d="M607.69,252.24c-.93-.24-1.93-.29-2.88-.47s-1.92-.35-2.87-.59a35.52,35.52,0,0,1-5.32-1.73,12.47,12.47,0,0,1-4.09-2.61,8.89,8.89,0,0,1-2.25-4.63c-.21-1-.35-2-.47-3a6.1,6.1,0,0,1,.19-3.06h0l.06-.19c0-.08-.1-.12-.14,0a4.46,4.46,0,0,0-.7,2.47,28.69,28.69,0,0,0,.1,2.93,11,11,0,0,0,1.6,5.44c2.16,3.13,6.17,4.48,9.72,5.27a29.36,29.36,0,0,0,3.5.58c.59.06,1.19.07,1.78.09a10.35,10.35,0,0,0,1.76,0C607.91,252.61,607.87,252.29,607.69,252.24Z" style="fill:#263238"></path><path d="M612.79,239.06c-.33-1.53-.67-3.06-1-4.59,0-.08-.13,0-.12,0,2.22,11.09,4.58,24.25-2.61,34-3.32,4.51-8.29,6.75-13.43,8.24-5.67,1.65-11.45,2.85-17.19,4.19s-11.7,2.8-17.42,4.68c-4.92,1.62-10.2,3.39-14.28,6.8a15.88,15.88,0,0,0-4.44,5.89,26.24,26.24,0,0,0-1.81,7.63c-.31,2.87-.4,5.76-.53,8.64q-.21,4.94-.34,9.88-.54,19.63.21,39.27c.06,1.61.33,8.84.42,10.44a.21.21,0,0,0,.41,0c-.42-13.14-.88-31.89-.62-45,.12-6.48.32-13,.66-19.44.29-5.5,1-11.35,4.85-15.49,3.7-4,9.07-5.85,14-7.55a177.31,177.31,0,0,1,17.37-4.82c5.83-1.37,11.7-2.6,17.5-4.16,5-1.33,10.06-3.16,13.71-7.09C615.9,262.23,615,249.52,612.79,239.06Z" style="fill:#455a64"></path><path d="M543.37,377a39.65,39.65,0,0,0-4.08-.17l-4,0c-2.76,0-5.53,0-8.29.08-5.53.08-11.06.18-16.59.37-1.55.05-3.1.08-4.65.17s-3.11.12-4.64.34c-.06,0-.09.11,0,.12a73.08,73.08,0,0,0,8.11.2c2.77,0,5.53,0,8.3,0q8.28-.09,16.58-.3c1.55,0,3.1-.11,4.65-.18a42.36,42.36,0,0,0,4.64-.31C543.48,377.19,543.54,377,543.37,377Z" style="fill:#455a64"></path><path d="M572.7,178.61c-4,19.09-12.11,39.19-14.61,43.24-6.73,10.88-29,23.19-36,25.19-3,.87-12.41-18.23-10.77-21.16S540.77,209,542,207.35c.88-1.13,13.3-17.76,20.25-28.31C571.29,165.39,573.76,173.6,572.7,178.61Z" style="fill:#eb9481"></path><path d="M524.66,246.12c-2.63,1.83-15.54,9.31-19.55,10.54s-15.83,3.95-17.09,1,2.14-4,2.14-4-5.17.35-6.17-2.76,4.35-4.61,4.35-4.61-5.34,0-6.11-3.2,4.86-3.78,4.86-3.78-4.88.21-4.42-2.67c.57-3.47,9.61-2.84,13.94-4.53,1-.39,19.38-9.22,19.38-9.22Z" style="fill:#eb9481"></path><path d="M486.6,239.29c6.65.46,9.64-.5,15.41-3.62.12-.06.23.1.12.17-5.37,3.57-8.95,5.31-15.56,3.78C486.24,239.54,486.29,239.27,486.6,239.29Z" style="fill:#263238"></path><path d="M487.81,246.17c6.95-.14,10.2-1.14,16.48-4,.09,0,.17.11.08.16-5.93,3.28-9.54,4.93-16.5,4.16C487.56,246.48,487.49,246.17,487.81,246.17Z" style="fill:#263238"></path><path d="M490.47,253.42c6.72-.61,10.33-1.56,16.08-5.08a.12.12,0,0,1,.14.2c-5.51,4.16-10,5.38-16.18,5.09C490.09,253.61,490.05,253.46,490.47,253.42Z" style="fill:#263238"></path><path d="M519.64,220.75s-8.08-2.1-11.83-2.23-17.94,4.5-17.11,7.62c1.07,4,9.78,3,14,1.88,0,0,2.47,9.32,8.88,9.91S519.64,220.75,519.64,220.75Z" style="fill:#eb9481"></path><path d="M491.36,227.15c3.62,3,9,1.19,13.19.45a.38.38,0,0,1,.47.43c1.29,3.83,4.24,8.87,8.34,10.06a.1.1,0,0,1,0,.2c-4.57-.69-7.87-5.4-9-9.69-4.25.83-9.76,2.37-13-1.42C491.31,227.16,491.33,227.13,491.36,227.15Z" style="fill:#263238"></path><path d="M519.69,219.59,532.92,243s22.32-11.9,25.46-19.64c1-2.36,11.58-26.82,13.84-40.77s-1.39-14.87-10-4.6-19.87,27.29-21.05,28.51S519.69,219.59,519.69,219.59Z" style="fill:#ebebeb"></path><path d="M617.76,244.23,560.11,248c-.26-.25-5.63-3.32-5.07-11.81,1.28-19.35,6.86-54.41,10.92-61.79a12.59,12.59,0,0,1,17.09-5.44c3.48,2.11,6.69,4.89,10.77,10.79,10,14.52,20.88,40.25,24.58,54.41C619.93,240,617.9,244.06,617.76,244.23Z" style="fill:#5CDB95"></path><path d="M572.27,181.39c1-.31,6.09-7.25,7-11.79.06-.31-1.23-3-2.64-6.31-.85-2-1.75-4.29-2.42-6.42-.13-.44-1.37.83-1.37.83l-2.54,1.54-8.42,5.08a35.36,35.36,0,0,1,3.86,7.77,5.12,5.12,0,0,1,.18.9l0,.15C566.19,174.89,570.67,181.91,572.27,181.39Z" style="fill:#eb9481"></path><path d="M565.91,173l0,.15a9.54,9.54,0,0,0,1.4-.35c8.93-3,6.45-14.83,6.45-14.83l-3.5,1.28-8.42,5.08a35.36,35.36,0,0,1,3.86,7.77A5.12,5.12,0,0,1,565.91,173Z" style="fill:#263238"></path><path d="M569.6,171.16h0" style="fill:none;stroke:#f4a69d;stroke-linecap:round;stroke-linejoin:round;stroke-width:0px"></path><path d="M571.71,144.13c2.37,4.62,2.35,19.2-.56,23-4.21,5.47-12.38,7.4-17.35,2C549,164,549.35,145,552.71,141.4,557.66,136.16,568.2,137.32,571.71,144.13Z" style="fill:#eb9481"></path><path d="M559.47,155.08s.07,0,.07.08c0,1,.11,2.12,1,2.44,0,0,0,.06,0,.05C559.44,157.5,559.28,156,559.47,155.08Z" style="fill:#263238"></path><path d="M560.34,154.05c1.58-.13,1.71,3,.25,3.16S559,154.15,560.34,154.05Z" style="fill:#263238"></path><path d="M553.79,155.48s-.07.05-.07.09c.07,1,0,2.11-.88,2.48,0,0,0,.06,0,0C553.93,157.9,554,156.39,553.79,155.48Z" style="fill:#263238"></path><path d="M552.87,154.49c-1.58-.05-1.57,3.12-.1,3.17S554.2,154.53,552.87,154.49Z" style="fill:#263238"></path><path d="M561.53,152.55c-.44-.09-.82-.25-1.25-.38a2.13,2.13,0,0,1-1.19-.63.68.68,0,0,1,.07-.82,1.67,1.67,0,0,1,1.67-.24,2.44,2.44,0,0,1,1.45,1A.72.72,0,0,1,561.53,152.55Z" style="fill:#c7c7c7"></path><path d="M551.58,153c.44-.09.82-.25,1.25-.38a2.13,2.13,0,0,0,1.19-.63.66.66,0,0,0-.07-.82,1.67,1.67,0,0,0-1.67-.24,2.4,2.4,0,0,0-1.45,1A.72.72,0,0,0,551.58,153Z" style="fill:#c7c7c7"></path><path d="M560.76,164.15c-.23.24-.45.56-.8.61a2.82,2.82,0,0,1-1.07-.2s-.06,0,0,.05a1.34,1.34,0,0,0,1.27.48,1.06,1.06,0,0,0,.74-.9C560.87,164.13,560.79,164.11,560.76,164.15Z" style="fill:#263238"></path><path d="M559.6,161.25a3.3,3.3,0,0,1-2.16,1.58,4,4,0,0,1-1.2.11.86.86,0,0,1-.23,0l-.22,0a.25.25,0,0,1-.21-.21h0a.31.31,0,0,1,0-.1h0v-.08c-.06-.76,0-1.91,0-1.91-.27.15-1.65.84-1.65.45a50.46,50.46,0,0,1,.87-10.17.09.09,0,0,1,.18,0c.07,3.15-.41,6.29-.39,9.45a5.86,5.86,0,0,1,1.55-.54c.11,0-.08,2.22,0,2.56a.1.1,0,0,0,0,0,4.66,4.66,0,0,0,3.41-1.22C559.58,161.11,559.66,161.17,559.6,161.25Z" style="fill:#263238"></path><path d="M556.67,162.54a3.93,3.93,0,0,0,1.64,1.16,1.73,1.73,0,0,0,1.08,0c.78-.24.77-1,.6-1.57a4,4,0,0,0-.4-.92A5.09,5.09,0,0,1,556.67,162.54Z" style="fill:#263238"></path><path d="M558.31,163.7a1.73,1.73,0,0,0,1.08,0c.78-.24.77-1,.6-1.57A1.84,1.84,0,0,0,558.31,163.7Z" style="fill:#ff99ba"></path><path d="M550.82,146.3c.49-1.27.84-3.72,2.1-4.19.9-.34,1.41,1.47,3.12,1.51,2.31.06,3.64-2.05,6.84-2.42,4.61-.52,6.11,4.61,6.5,11.17.36,5.86,3.92,6.25,3.92,6.25s1.58-13-2.25-17.13-12.26-5.64-17.7-1.32C551.37,141.75,550.82,146.3,550.82,146.3Z" style="fill:#c7c7c7"></path><path d="M572.53,136.17a1.36,1.36,0,1,1-1.36-1.35A1.35,1.35,0,0,1,572.53,136.17Z" style="fill:#37474f"></path><path d="M573.23,148.82c-.6-.55-8.89-6.13-11-6.49a65,65,0,0,0-9.94-.18c-1.3.15-3.6-1.86-3-3.22.74-1.58,5-1.86,7.68-2.39s10.46-1.92,14.75.45c3.29,1.82,7.23,5.64,6.49,8.58C577.6,148.29,573.23,148.82,573.23,148.82Z" style="fill:#455a64"></path><g style="opacity:0.2"><path d="M557.44,147.83a10.73,10.73,0,0,1-1.6.18c-.55,0-1.09-.1-1.63-.09a8.81,8.81,0,0,0-3,.77c-.08,0-.07.09,0,.06a7.49,7.49,0,0,1,3.17-.56,9.87,9.87,0,0,0,2.66-.06,9.55,9.55,0,0,1,5.93.38s0,0,0,0A9.69,9.69,0,0,0,557.44,147.83Z"></path><path d="M557.42,146.39a9.82,9.82,0,0,1-1.52.17c-.52,0-1-.1-1.55-.08a8.15,8.15,0,0,0-2.82.72c-.08,0-.07.09,0,.06a7.07,7.07,0,0,1,3-.53,9.24,9.24,0,0,0,2.52-.06,9.11,9.11,0,0,1,5.63.36s0,0,0,0A9.14,9.14,0,0,0,557.42,146.39Z"></path></g><path d="M551.45,161.63c-1.63,0-3-2-3-4.48s1.34-4.48,3-4.48,3,2,3,4.48S553.09,161.63,551.45,161.63Zm0-8.36c-1.3,0-2.36,1.74-2.37,3.88s1.06,3.88,2.37,3.88,2.36-1.74,2.36-3.88S552.77,153.27,551.46,153.27Z" style="fill:#455a64"></path><path d="M561.5,161.64a4.49,4.49,0,1,1,4.19-4.48A4.34,4.34,0,0,1,561.5,161.64Zm0-8.36a3.89,3.89,0,1,0,3.58,3.88A3.74,3.74,0,0,0,561.51,153.28Z" style="fill:#455a64"></path><path d="M557.52,156.75c-2.24-.79-3.26-.06-3.26-.05l-.37-.47s1.25-1,3.83,0Z" style="fill:#455a64"></path><path d="M565.39,156.77l-.11-.59c.39-.07,6.93-1.34,7.93-1.4s3.49,1.32,3.77,1.47l-.3.52a11.51,11.51,0,0,0-3.39-1.39h0C572.48,155.42,568.67,156.17,565.39,156.77Z" style="fill:#455a64"></path><path d="M570.86,156.26s2.45-5.1,4.71-4.3.94,7.84-1.35,9.14a2.51,2.51,0,0,1-3.54-.79Z" style="fill:#eb9481"></path><path d="M575.14,154a0,0,0,0,1,0,.06,6.34,6.34,0,0,0-2.6,4.45,1.38,1.38,0,0,1,2-.7c.05,0,0,.1,0,.09a1.55,1.55,0,0,0-1.59.81,7.09,7.09,0,0,0-.58,1.49c-.06.17-.35.13-.32-.06v0C571.64,157.9,572.84,154.57,575.14,154Z" style="fill:#263238"></path><path d="M566,173.33l5.49,7.09,7.06-12.85,3.72,2.45s-5.19,18.72-5.46,18l-5.2-5.95-3.4,6.11-3-12.1Z" style="fill:#ebebeb"></path><path d="M566.36,182.3c-.43-2-.91-4-1.24-6.06a.07.07,0,0,1,.13-.06c.93,1.8,2.51,9.51,3,11.32v0c.14-.27,3.22-5.44,3.28-5.39,1,.89,4.83,5.22,5.12,5.63.81-3,4.09-13.87,5.22-16.78,0-.09.16-.06.14,0-.6,3.07-4.87,17.7-5,17.69a81.89,81.89,0,0,1-5.47-6.29c-.46,1.07-3.43,6.77-3.52,6.48A61.75,61.75,0,0,1,566.36,182.3Z" style="fill:#263238"></path><path d="M570.9,224.76s-11.43,2.61-18.58,3.32c-4,.4-10.77,1.69-13.57,3.32-4.18,2.44-20.12,15.32-17.08,19.25,2.75,3.56,15-9.24,15-9.24s-13.54,11.82-9.44,15.49,16.06-12.63,16.06-12.63-13.64,12.46-8.81,15.58c3.65,2.36,15.31-11.8,15.31-11.8s-11.65,10.79-8,13.37c4,2.86,15.62-9.53,15.62-9.53,10.38,5,19.36.86,24.18-1C582.8,250.38,570.9,224.76,570.9,224.76Z" style="fill:#eb9481"></path><path d="M540.33,237.71c-6.17,4.9-11.21,11.26-12.79,14.16-.2.36-.36.68-.34.65,2.77-3.21,11.67-13.29,13.19-14.76C540.42,237.73,540.37,237.68,540.33,237.71Z" style="fill:#263238"></path><path d="M546.55,242.4c-5.2,3-9.64,9.19-11.44,11.19-.14.15,0,.17.13,0,1.88-1.93,9.39-9.35,11.36-11.18C546.63,242.41,546.58,242.38,546.55,242.4Z" style="fill:#263238"></path><path d="M551.53,246.65a27.85,27.85,0,0,0-8.1,8.45c-.12.18,0,.17.18,0,2.8-3,4.48-4.94,8-8.36A.07.07,0,0,0,551.53,246.65Z" style="fill:#263238"></path><path d="M584,181.6c.77,7.58,11.09,34.84,10.9,36.29s-27.33,7.21-32.85,9.54c-3.74,1.58,5.9,28.13,13.11,25.74,11.18-3.71,42.95-13.44,45.95-23.88s-23.32-46.16-28.56-52.57S582.78,169.13,584,181.6Z" style="fill:#eb9481"></path><path d="M562.35,225.21,580.74,255s36.37-13.38,41.1-24.33c4.36-10.07-25-50.29-29.75-55.49s-10-6.73-8,8.63,10.84,32.65,10,33.64S562.35,225.21,562.35,225.21Z" style="fill:#ebebeb"></path><rect x="544.57" y="268.7" width="84.05" height="32.4" style="fill:#a6a6a6"></rect><path d="M614.89,379.05H544.57V375h70.32a11.56,11.56,0,0,0,11.54-11.54V206.27A15.61,15.61,0,0,1,642,190.67h9.48v4.06H642a11.54,11.54,0,0,0-11.53,11.54V363.45A15.62,15.62,0,0,1,614.89,379.05Z" style="fill:#c7c7c7"></path><path d="M546.6,401h-4.06V267a14.05,14.05,0,0,1,14-14h71.88V257H556.58a10,10,0,0,0-10,10Z" style="fill:#c7c7c7"></path><rect x="638.92" y="188.52" width="25.15" height="8.07" style="fill:#263238"></rect><path d="M624.14,423.84c-31.32,0-56.8-31.8-56.8-70.89s25.48-70.89,56.8-70.89,56.79,31.8,56.79,70.89S655.46,423.84,624.14,423.84Zm0-136.1C596,287.74,573,317,573,353s22.93,65.2,51.12,65.2,51.11-29.25,51.11-65.2S652.32,287.74,624.14,287.74Z" style="fill:#263238"></path><path d="M628.62,415.79c-27.71,0-50.25-28.19-50.25-62.84s22.54-62.85,50.25-62.85,50.25,28.2,50.25,62.85S656.33,415.79,628.62,415.79Zm0-121.63c-25.47,0-46.19,26.37-46.19,58.79s20.72,58.78,46.19,58.78,46.19-26.37,46.19-58.78S654.09,294.16,628.62,294.16Z" style="fill:#c7c7c7"></path><ellipse cx="626.7" cy="352.95" rx="8.15" ry="10.27" style="fill:#c7c7c7"></ellipse><ellipse cx="629.31" cy="352.95" rx="8.15" ry="10.27" style="fill:#dbdbdb"></ellipse><ellipse cx="545.71" cy="412.42" rx="10.6" ry="13.37" style="fill:#c7c7c7"></ellipse><ellipse cx="549.11" cy="412.42" rx="10.6" ry="13.37" style="fill:#dbdbdb"></ellipse></g><g id="freepik--character-1--inject-98"><path d="M221.46,253.18c-5.16-3.33-13.05-14.27-13.94-17.64s16.46-15.76,19.92-14.87,20.78,11.82,22.76,17.76S226.81,256.63,221.46,253.18Z" style="fill:#ad6359"></path><path d="M289,429c-.14-1.46-13.85-145.83-15-153.74-2.35-16.88-8.82-28.11-32.78-28.11-25.4,0-32.29,5.5-35.12,28.06-3,23.66-14.83,152.48-15,153.78l-7-.64c.12-1.3,12-130.24,15-154,3.28-26.21,13.11-34.19,42.06-34.19,31,0,37.5,18.24,39.71,34.14,1.12,8.06,14.42,148.09,15,154.05Z" style="fill:#c7c7c7"></path><rect x="194.27" y="354.89" width="91.47" height="7" style="fill:#c7c7c7"></rect><polygon points="193.47 435.87 181.91 435.87 182.8 421.67 192.57 421.67 193.47 435.87" style="fill:#a6a6a6"></polygon><polygon points="298.23 435.87 286.67 435.87 287.56 421.67 297.34 421.67 298.23 435.87" style="fill:#a6a6a6"></polygon><path d="M170.94,186.71c2.2,14.58,9.5,33.8,14.27,38.87,6.14,6.52,20.7,15.34,27.38,18.1,3,1.23,23.95-19.88,20.73-21.13-4.48-1.75-29.83-12.68-32.15-13.82s-12.65-14.36-18.6-25.38C175.06,169.46,169.08,174.37,170.94,186.71Z" style="fill:#ad6359"></path><path d="M245.31,229.9c-3.25-.09-1.5,3.79-1.5,3.79s-3.87-5-7.26-3.78-1,5.78-.83,6.12c-.21-.27-3.88-4.76-7.16-3.2s-.33,5.87-.13,6.14c-.27-.19-3.93-2.59-6.15-.84-3.82,3,5.35,9.41,5.87,13.31,0,0-6.51,1.65-6.69,1.74,0,0,8.6,6.26,13.83,5.25a3.4,3.4,0,0,0,2.8-3.2s2.55,2.33,5.18,1.18c1.34-.59,1.59-3.27,1.59-3.27a4.26,4.26,0,0,0,4.39.62c1.82-.92,1.79-3.47,1.79-3.47s2.83.77,4.37-.78C258.54,246.4,252.27,230.11,245.31,229.9Z" style="fill:#ad6359"></path><path d="M251.1,249.89c0,.06.1,0,.09,0a30.34,30.34,0,0,0-7.45-16.41c-.14-.14-.43,0-.31.2A62.47,62.47,0,0,1,251.1,249.89Z" style="fill:#263238"></path><path d="M244.93,253.21c0,.07.13,0,.12,0a28.34,28.34,0,0,0-9.25-17.39c-.18-.15-.49-.11-.3.08C238.79,239.09,243.36,247.79,244.93,253.21Z" style="fill:#263238"></path><path d="M228,238.79c4.9,4.45,7.88,10,10.12,16.19,0,.08.13,0,.13,0-.27-3.32-2.11-7.1-3.79-9.92a17.45,17.45,0,0,0-6.31-6.4C228,238.55,227.85,238.69,228,238.79Z" style="fill:#263238"></path><path d="M243.81,233.69a20.66,20.66,0,0,0-2.72-2.41,6.65,6.65,0,0,0-3.19-1.4,2.22,2.22,0,0,0-1.51.42,3.09,3.09,0,0,0-1,1.28,3.87,3.87,0,0,0,.29,3.15l1.22,2.38-2-1.81a10.75,10.75,0,0,0-2.94-2,3.88,3.88,0,0,0-3.18-.2,2.22,2.22,0,0,0-1.4,2.43,6.73,6.73,0,0,0,1.42,3.07l1.91,2.51-2.62-1.73a10.12,10.12,0,0,0-2.35-1.17,4.35,4.35,0,0,0-2.43-.19,2,2,0,0,0-1.45,1.54,4.5,4.5,0,0,0,.56,2.43,35.67,35.67,0,0,0,3,4.59c.54.75,1.08,1.51,1.58,2.29a6.73,6.73,0,0,1,1.12,2.54,7,7,0,0,0-1.33-2.39c-.56-.73-1.15-1.44-1.74-2.15a29.45,29.45,0,0,1-3.3-4.54,5.2,5.2,0,0,1-.77-2.88,2.85,2.85,0,0,1,2.06-2.35,5.18,5.18,0,0,1,3,.15,11.32,11.32,0,0,1,2.63,1.25l-.71.78a7.81,7.81,0,0,1-1.71-3.61,3.23,3.23,0,0,1,.42-2.15,3.71,3.71,0,0,1,1.65-1.4,4.94,4.94,0,0,1,4,.25,11.91,11.91,0,0,1,3.2,2.22l-.75.57a4.64,4.64,0,0,1-.16-3.92,3.83,3.83,0,0,1,1.31-1.51,2.82,2.82,0,0,1,2-.46,6.83,6.83,0,0,1,3.33,1.72A17.19,17.19,0,0,1,243.81,233.69Z" style="fill:#263238"></path><path d="M230.53,221.62s25.87,3.07,19.72,12.6c-1.83,2.83-12.72,12.27-14.66,10.12-2.5-2.77,1.31-7.56,4.18-10.19,0,0-9,.19-11-6A6.46,6.46,0,0,1,230.53,221.62Z" style="fill:#ad6359"></path><path d="M250.71,233.4a13.7,13.7,0,0,1-2.25,3.27,28.87,28.87,0,0,1-2.83,2.81,45.22,45.22,0,0,1-6.4,4.79,7.6,7.6,0,0,1-1.94.85,2.87,2.87,0,0,1-1.21,0,2,2,0,0,1-.63-.22,2.12,2.12,0,0,1-.51-.42,3.3,3.3,0,0,1-.82-2.17,6.3,6.3,0,0,1,.39-2.14,11.86,11.86,0,0,1,2.14-3.52,27.33,27.33,0,0,1,2.8-2.89l.33.8a16.73,16.73,0,0,1-3-.33,15.21,15.21,0,0,1-2.9-.89,10.71,10.71,0,0,1-2.58-1.6,7.87,7.87,0,0,1-1.87-2.32,9.24,9.24,0,0,0,2.07,2.07,11,11,0,0,0,2.59,1.3,13.73,13.73,0,0,0,2.81.69,15.61,15.61,0,0,0,2.88.16l1.18-.06-.85.86a29.39,29.39,0,0,0-2.62,2.86,11.76,11.76,0,0,0-1.91,3.24c-.4,1.12-.49,2.45.2,3.19s1.89.17,3-.42a37.23,37.23,0,0,0,3.29-2.1c1.08-.74,2.15-1.5,3.18-2.31A25.49,25.49,0,0,0,250.71,233.4Z" style="fill:#263238"></path><path d="M206.91,244.13l16.54-26.46s-20.53-8.34-22.61-10.09-14.67-20-19.75-28-12.14-7.24-10.91,5.9,10.16,35.51,13.59,39.7S206.91,244.13,206.91,244.13Z" style="fill:#5CDB95"></path><path d="M188.2,195.43a6,6,0,0,1,.92-1.39,6.52,6.52,0,0,1-.56,1.57,5.84,5.84,0,0,1-.92,1.4A6.06,6.06,0,0,1,188.2,195.43Zm23,21.93a6.27,6.27,0,0,0,.92-1.4,6.12,6.12,0,0,0,.56-1.57,6,6,0,0,0-.92,1.39A6.45,6.45,0,0,0,211.23,217.36Zm-22.11,2.32a6,6,0,0,0,.92-1.39,6.45,6.45,0,0,0,.56-1.58,5.84,5.84,0,0,0-.92,1.4A6.12,6.12,0,0,0,189.12,219.68ZM210,233.45a6,6,0,0,0,.92-1.39,6.19,6.19,0,0,0,.56-1.58,5.84,5.84,0,0,0-.92,1.4A6.37,6.37,0,0,0,210,233.45ZM203.35,212a6.68,6.68,0,0,0-1.4-.93,6,6,0,0,0-1.58-.55,7,7,0,0,0,1.4.92A6.45,6.45,0,0,0,203.35,212Zm-20.07-10a7,7,0,0,0-1.4-.92,6.45,6.45,0,0,0-1.58-.56,6.68,6.68,0,0,0,1.4.93A6,6,0,0,0,183.28,202.07Zm-8.09-21.72a7,7,0,0,0-1.4-.92,6,6,0,0,0-1.58-.55,7,7,0,0,0,1.4.92A6,6,0,0,0,175.19,180.35Zm27.63,54.58a6.27,6.27,0,0,0-1.4-.92,6.45,6.45,0,0,0-1.58-.56,6.27,6.27,0,0,0,1.4.92A6.06,6.06,0,0,0,202.82,234.93Zm-21.65-22.59a6,6,0,0,0,1.64-.33,7,7,0,0,0,1.51-.72,5.9,5.9,0,0,0-1.64.33A6.54,6.54,0,0,0,181.17,212.34Zm27.1,12.94a6.47,6.47,0,0,0,1.64-.34,6.14,6.14,0,0,0,1.51-.72,6.38,6.38,0,0,0-1.64.34A6,6,0,0,0,208.27,225.28ZM191.7,229.1a6.45,6.45,0,0,0,1.64-.33,6.56,6.56,0,0,0,1.51-.73,7,7,0,0,0-3.15,1.06Zm-17-35.37a6.38,6.38,0,0,0,1.64-.34,6,6,0,0,0,1.51-.72,6.47,6.47,0,0,0-1.64.34A6.14,6.14,0,0,0,174.73,193.73Zm16.83,11a6.29,6.29,0,0,0,.33,1.63,6.19,6.19,0,0,0,.73,1.51,6.3,6.3,0,0,0-.34-1.63A6.16,6.16,0,0,0,191.56,204.75Zm7.75,14.3a6.29,6.29,0,0,0,.34,1.64,5.82,5.82,0,0,0,.72,1.51,6.06,6.06,0,0,0-.34-1.64A6.14,6.14,0,0,0,199.31,219.05Zm20.18-1.57a6.47,6.47,0,0,0,.34,1.64,6.14,6.14,0,0,0,.72,1.51,6.38,6.38,0,0,0-.34-1.64A6,6,0,0,0,219.49,217.48Zm-38.85-33.43a6.28,6.28,0,0,0,.33,1.64,6.54,6.54,0,0,0,.72,1.51,6,6,0,0,0-.33-1.64A7,7,0,0,0,180.64,184.05Z" style="fill:#fff"></path><path d="M218,216.51c-1.38,1.85-2.61,3.83-3.89,5.74s-2.6,3.93-3.88,5.9-2.5,3.91-3.73,5.88-2.28,4-3.47,6c0,.07.08.15.12.08,1.29-1.92,2.71-3.74,4-5.69s2.55-4,3.81-6,2.39-3.85,3.57-5.79,2.52-4,3.63-6C218.15,216.51,218,216.44,218,216.51Z" style="fill:#263238"></path><path d="M221.48,445.48c-2.06.69-60.84.81-63.09-.61-.85-.53-1.37-9.09-1.7-19.45-.07-2.24,1.44-38.32,1.44-38.32l37.39-.18-.76,31.42-.17,6.9s22.53,10,24.83,11.83S223.53,444.79,221.48,445.48Z" style="fill:#ad6359"></path><path d="M156.86,430.07c.33,8.17.81,14.36,1.53,14.8,2.24,1.42,61,1.3,63.09.61s.22-6.59-2.06-8.4c-1-.8-5.91-3.18-11.1-5.6h0s5.12,4.13,3.23,4.72C201.62,439.3,167.67,432.4,156.86,430.07Z" style="fill:#263238"></path><path d="M152.93,247l0,2.56s5.35,55.7,5.86,76.16c.6,24.1-1.95,92.57-1.95,92.57l37.89,0s3-72.3,2.11-96.38c-.8-21-11-74.79-11-74.79l-.11-2.44-2.2-21.17H153.21Z" style="fill:#ad6359"></path><path d="M168.36,450.26c-2.11.49-60.64-5.1-62.73-6.73-.8-.61-.49-9.18.19-19.53.15-2.23,5.34-38.64,5.34-38.64l37.7,5-5.3,37.11s21.45,12.16,23.56,14.19S170.47,449.77,168.36,450.26Z" style="fill:#ad6359"></path><path d="M105.54,428.65c-.46,8.16-.59,14.37.08,14.88,2.1,1.63,60.63,7.22,62.74,6.73s.86-6.54-1.24-8.57c-.93-.89-5.57-3.74-10.5-6.65h0s4.69,4.61,2.76,5C149.19,442.18,116.07,432,105.54,428.65Z" style="fill:#263238"></path><path d="M181.85,223.52v0c-.15.72.1,12-2.43,21.75-1.84,7.11-3.73,13.35-4.81,14s-7.22,3.38-9.23,4.22l-9.16,78.68L143.8,423.42,106.56,418l10.87-77.2,12.38-85.77c-1.64-20.23,7-31.53,7-31.53Z" style="fill:#ad6359"></path><path d="M135.82,223.52h48.65S186,245,186.16,246.83s11.26,58.25,11.52,73.36,0,29,0,29-22.22,7.41-44.75,5.62S115.05,344,115.05,344s14.57-88.79,14.57-89S125.19,240.74,135.82,223.52Z" style="fill:#263238"></path><path d="M186.31,230.53s-18.78,3.43-53.78-1.46c0,0,16.06-43.15,27.75-54.4,5.32-5.11,10.2-4,14.19-.35,1,.92,13,18,13.83,23.75.7,5.09-3.69,10.48-3.69,10.48Z" style="fill:#5CDB95"></path><path d="M184.61,208.55l1.7,22s-18.78,3.43-53.77-1.46c0,0,16.05-43.15,27.74-54.4,5.32-5.11,10.2-4,14.19-.35.91.84,11,15.06,13.37,22,0,.12.08.24.11.35a8.25,8.25,0,0,1,.36,1.45C189,203.16,184.61,208.55,184.61,208.55Z" style="fill:#5CDB95"></path><path d="M152.09,210.18a6.37,6.37,0,0,1,.93-1.39,6.37,6.37,0,0,1-.56,1.57,6.51,6.51,0,0,1-.92,1.4A6.17,6.17,0,0,1,152.09,210.18Zm15.56-19.64a6.2,6.2,0,0,0,.93-1.4,6.1,6.1,0,0,0,.55-1.57,6.33,6.33,0,0,0-.92,1.39A6.45,6.45,0,0,0,167.65,190.54Zm20.19,5.73a5.74,5.74,0,0,0-.2.74,3,3,0,0,0,.31-.39C187.92,196.51,187.88,196.39,187.84,196.27Zm-49.63,31.3a6.27,6.27,0,0,0,.92-1.4,6.06,6.06,0,0,0,.56-1.58,6.27,6.27,0,0,0-.92,1.4A6.45,6.45,0,0,0,138.21,227.57ZM173,217.36a6.27,6.27,0,0,0,.92-1.4,6.12,6.12,0,0,0,.56-1.57,6,6,0,0,0-.92,1.39A6.45,6.45,0,0,0,173,217.36Zm-8.82-41.7a6.27,6.27,0,0,0,.92-1.4,6.06,6.06,0,0,0,.56-1.58,6.27,6.27,0,0,0-.92,1.4A6.45,6.45,0,0,0,164.14,175.66Zm1,34.32a6.27,6.27,0,0,0-1.4-.92,6.06,6.06,0,0,0-1.58-.56,6.27,6.27,0,0,0,1.4.92A6.45,6.45,0,0,0,165.15,210Zm18.13-7.91a7,7,0,0,0-1.4-.92,6.45,6.45,0,0,0-1.58-.56,6.68,6.68,0,0,0,1.4.93A6,6,0,0,0,183.28,202.07Zm-8.09-21.72a7,7,0,0,0-1.4-.92,6,6,0,0,0-1.58-.55,7,7,0,0,0,1.4.92A6,6,0,0,0,175.19,180.35Zm-4.59,47.22a6.68,6.68,0,0,0-1.4-.93,6,6,0,0,0-1.58-.55,6.63,6.63,0,0,0,1.4.92A6.45,6.45,0,0,0,170.6,227.57Zm-16.14-38.52a6.63,6.63,0,0,0-1.4-.92,6.45,6.45,0,0,0-1.58-.56,6.27,6.27,0,0,0,1.4.92A6.06,6.06,0,0,0,154.46,189.05Zm-4.88,33.36a6,6,0,0,0-1.39-.92,6.45,6.45,0,0,0-1.58-.56,5.84,5.84,0,0,0,1.4.92A6.12,6.12,0,0,0,149.58,222.41Zm8.92-3.69a6,6,0,0,0,1.64-.33,6.52,6.52,0,0,0,1.51-.72A6,6,0,0,0,160,218,6.74,6.74,0,0,0,158.5,218.72Zm22.67-6.38a6,6,0,0,0,1.64-.33,7,7,0,0,0,1.51-.72,5.9,5.9,0,0,0-1.64.33A6.54,6.54,0,0,0,181.17,212.34ZM158,198.25a6.38,6.38,0,0,0,1.64-.34,6,6,0,0,0,1.51-.72,6.37,6.37,0,0,0-1.64.33A6.56,6.56,0,0,0,158,198.25Zm16.69-4.52a6.38,6.38,0,0,0,1.64-.34,6,6,0,0,0,1.51-.72,6.47,6.47,0,0,0-1.64.34A6.14,6.14,0,0,0,174.73,193.73ZM140.08,214a6.37,6.37,0,0,0,1.64-.33,6.74,6.74,0,0,0,1.51-.72,6,6,0,0,0-1.64.33A7,7,0,0,0,140.08,214ZM147,198.48a6.38,6.38,0,0,0,.34,1.64,6,6,0,0,0,.72,1.51,6.38,6.38,0,0,0-.34-1.64A6,6,0,0,0,147,198.48Zm24.82,3.61a6.29,6.29,0,0,0,.34,1.64,5.82,5.82,0,0,0,.72,1.51,6.47,6.47,0,0,0-.34-1.64A6.14,6.14,0,0,0,171.78,202.09ZM180,224.22a6.29,6.29,0,0,0,.34,1.64,5.82,5.82,0,0,0,.72,1.51,6.47,6.47,0,0,0-.34-1.64A6.14,6.14,0,0,0,180,224.22Zm-24.23,2.25a6,6,0,0,0,.33,1.64,6.74,6.74,0,0,0,.72,1.51,6,6,0,0,0-.33-1.64A6.74,6.74,0,0,0,155.8,226.47Zm4.86-45.15A6.38,6.38,0,0,0,161,183a6,6,0,0,0,.72,1.51,6.47,6.47,0,0,0-.34-1.64A6.14,6.14,0,0,0,160.66,181.32Zm20,2.73a6.28,6.28,0,0,0,.33,1.64,6.54,6.54,0,0,0,.72,1.51,6,6,0,0,0-.33-1.64A7,7,0,0,0,180.64,184.05Z" style="fill:#fff"></path><path d="M188.39,200.09a12.54,12.54,0,0,0-.59-4.59,26.54,26.54,0,0,0-2.51-5c-.19-.32-.37-.65-.55-1l-.19-.45c-.13-.31-.26-.62-.41-.93-.3-.65-.61-1.3-.92-1.94,0,0,0,0,0,0,.25.63.5,1.27.76,1.9l0,0c-.74-1.34-1.5-2.68-2.33-4,0,0-.09,0-.07,0,1.07,2.31,2.42,4.51,3.62,6.76a20.72,20.72,0,0,1,2.52,6.12c.68,4-.75,9-3.37,11.18-.05,0,.59,6.52.85,9.69.13,1.56.24,3.13.39,4.69s.38,3.21.51,4.81c0,.1.16.1.16,0-.06-1.57,0-3.14-.11-4.7s-.22-3.21-.35-4.82c-.25-3.17-.93-9.43-1-9.45C187.13,206.49,188.23,203.12,188.39,200.09Z" style="fill:#263238"></path><path d="M167.52,175.55c0,1,3,8,7.22,8.83,1.39.26,3.16-7.25,3.16-7.25l.25-.53,3.6-7.34-7.71-8-1.14-1.09s-.85,2.08-1.88,4.67l-.15.37c-.06.15-.12.28-.17.42-.16.38-.32.78-.48,1.18s-.23.59-.34.91l-.35.95A53,53,0,0,0,167.52,175.55Z" style="fill:#ad6359"></path><path d="M171,164.8a16.39,16.39,0,0,0,7.13,11.8l3.6-7.34-7.71-8-1.14-1.09S172.05,162.21,171,164.8Z" style="fill:#263238"></path><path d="M196.36,159.38c-.18,14.35-8.8,15.86-11.9,15.82-2.81,0-12.37-.53-13.67-14.83s5.44-18.74,11.87-19S196.54,145,196.36,159.38Z" style="fill:#ad6359"></path><path d="M194.17,156.67a8.42,8.42,0,0,1-1-.24,1.52,1.52,0,0,1-.93-.43.5.5,0,0,1,0-.62,1.27,1.27,0,0,1,1.26-.25,1.84,1.84,0,0,1,1.14.7A.54.54,0,0,1,194.17,156.67Z" style="fill:#a6a6a6"></path><path d="M184.93,156.56c.34,0,.64-.11,1-.17a1.67,1.67,0,0,0,1-.36.53.53,0,0,0,0-.63,1.3,1.3,0,0,0-1.24-.34,2,2,0,0,0-1.19.62A.54.54,0,0,0,184.93,156.56Z" style="fill:#a6a6a6"></path><path d="M186.92,159.79s-.07.05-.07.09c0,1-.13,2.1-1,2.41,0,0,0,.06,0,.06C186.92,162.21,187.1,160.72,186.92,159.79Z" style="fill:#263238"></path><path d="M186.06,158.76c-1.57-.14-1.73,3-.27,3.14S187.38,158.88,186.06,158.76Z" style="fill:#263238"></path><path d="M185.43,158.9c-.28.16-.57.46-.9.48s-.66-.33-.89-.66c0,0-.06,0-.06,0,0,.6.16,1.23.81,1.35s1-.4,1.21-1C185.64,159,185.55,158.83,185.43,158.9Z" style="fill:#263238"></path><path d="M191.92,160s.08.05.07.09c-.08,1,0,2.1.84,2.48,0,0,0,.06,0,.05C191.75,162.38,191.68,160.87,191.92,160Z" style="fill:#263238"></path><path d="M192.85,159c1.58,0,1.52,3.13.06,3.15S191.53,159,192.85,159Z" style="fill:#263238"></path><path d="M193.51,159.22c.24.17.49.48.78.5s.61-.3.84-.63c0,0,0,0,0,0,0,.6-.2,1.23-.78,1.33s-.91-.43-1-1C193.32,159.32,193.41,159.15,193.51,159.22Z" style="fill:#263238"></path><path d="M186.4,167.9c.21.25.41.59.76.65a2.62,2.62,0,0,0,1.07-.14s.06,0,0,.05a1.31,1.31,0,0,1-1.29.41,1,1,0,0,1-.68-.93C186.29,167.88,186.36,167.87,186.4,167.9Z" style="fill:#263238"></path><path d="M190.61,164.53a21.58,21.58,0,0,1,.12,2.16c0,.06-.17.09-.4.09h0a3.27,3.27,0,0,1-3.13-1.35c0-.06.05-.13.11-.09a4.88,4.88,0,0,0,2.95,1c.06-.18-.33-2.5-.22-2.5a5.77,5.77,0,0,1,1.55.41c-.21-3.06-.92-6.07-1.08-9.12a.09.09,0,0,1,.18,0,49.61,49.61,0,0,1,1.58,9.78C192.28,165.23,190.89,164.66,190.61,164.53Z" style="fill:#263238"></path><path d="M190.24,166.45a4,4,0,0,1-1.55,1.29,1.83,1.83,0,0,1-1.09.1c-.79-.18-.84-.9-.71-1.53a4.21,4.21,0,0,1,.32-.95A5.19,5.19,0,0,0,190.24,166.45Z" style="fill:#263238"></path><path d="M188.69,167.74a1.83,1.83,0,0,1-1.09.1c-.79-.18-.84-.9-.71-1.53A1.87,1.87,0,0,1,188.69,167.74Z" style="fill:#ff9bbc"></path><g style="opacity:0.2"><path d="M188.54,153.69a12.37,12.37,0,0,0,1.61,0c.54,0,1.07-.2,1.62-.23a8.88,8.88,0,0,1,3,.5c.09,0,.07.08,0,.06a7.76,7.76,0,0,0-3.21-.28,9.88,9.88,0,0,1-2.66.17,9.63,9.63,0,0,0-5.88.9s0,0,0,0A9.67,9.67,0,0,1,188.54,153.69Z"></path><path d="M188.44,152.25a11.17,11.17,0,0,0,1.53,0c.51,0,1-.19,1.53-.22a8.16,8.16,0,0,1,2.87.48c.09,0,.08.08,0,0a7.11,7.11,0,0,0-3-.26,9.25,9.25,0,0,1-2.52.16,9.14,9.14,0,0,0-5.57.85s0,0,0,0A9.17,9.17,0,0,1,188.44,152.25Z"></path></g><path d="M171.35,161.38A5.81,5.81,0,0,0,175,157c12.13-2.12,15-10.27,15-10.27,3.29,6,5.54,6.78,6,7.69,0,0,.19-5.66-2.29-9.59a11.66,11.66,0,0,0-13.41-5c-3.65,1-6.31,4.73-6.31,4.73s-4,1-5.13,4.53C167,154.91,171.35,161.38,171.35,161.38Z" style="fill:#a6a6a6"></path><path d="M190.17,146.19a10,10,0,0,1-1.79,4.57,12.89,12.89,0,0,1-3.61,3.41l-1.09.61c-.37.19-.76.34-1.14.5a16.35,16.35,0,0,1-2.36.79c-.8.19-1.62.3-2.43.45s-1.64.12-2.46.15c.81-.15,1.62-.26,2.42-.39s1.6-.35,2.37-.59a18,18,0,0,0,4.42-1.94,13.34,13.34,0,0,0,3.57-3.21A11.57,11.57,0,0,0,190.17,146.19Z" style="fill:#a6a6a6"></path><path d="M170.7,165.67a3.33,3.33,0,0,0,.64.23,2.4,2.4,0,0,0,.68.09,2.08,2.08,0,0,0,.85-.19,2.27,2.27,0,0,0,.58-.36,2.85,2.85,0,0,0,.62-.75l-.41-3.89s-2.68-4.77-4.81-3.86S168.41,164.55,170.7,165.67Z" style="fill:#ad6359"></path><path d="M169.38,158.84a0,0,0,0,0,0,.07,6.12,6.12,0,0,1,2.78,4.13,1.34,1.34,0,0,0-2-.56c-.05,0,0,.1,0,.09a1.49,1.49,0,0,1,1.58.68,7.13,7.13,0,0,1,.65,1.4c.06.16.34.11.3-.07v0C173,162.42,171.64,159.29,169.38,158.84Z" style="fill:#263238"></path><path d="M170.85,164.89a.67.67,0,1,0,.6-.73A.68.68,0,0,0,170.85,164.89Z" style="fill:#fff"></path><path d="M174.2,144.36c1.33-.5,2.6-8-2.3-11.5s-11.17.5-8.54,6.61C165,143.33,171.38,145.41,174.2,144.36Z" style="fill:#a6a6a6"></path><path d="M165.05,132.42a8.33,8.33,0,0,0-2.82,4.72,5,5,0,0,0,1.49,4.8,10.11,10.11,0,0,0,4.86,2.38,15.43,15.43,0,0,0,2.8.35,8,8,0,0,0,2.82-.31,6.8,6.8,0,0,1-2.8.83,12.22,12.22,0,0,1-3-.05,9.84,9.84,0,0,1-5.46-2.43,5.78,5.78,0,0,1-1.61-2.67,5.88,5.88,0,0,1,.06-3.09A7.32,7.32,0,0,1,165.05,132.42Z" style="fill:#a6a6a6"></path><rect x="240.39" y="299.68" width="40.67" height="7" transform="translate(-91.03 113) rotate(-20.91)" style="fill:#c7c7c7"></rect><rect x="247.78" y="362.14" width="40.67" height="7" transform="translate(-112.83 119.76) rotate(-20.91)" style="fill:#c7c7c7"></rect><path d="M251,443.54c-.14-1.46-13.84-145.83-14.94-153.74-2.35-16.88-8.82-28.11-32.78-28.11-25.4,0-32.29,5.5-35.12,28.06-3,23.66-14.83,152.48-15,153.78l-7-.64c.12-1.3,12-130.24,15-154,3.28-26.2,13.11-34.19,42.06-34.19,31,0,37.5,18.24,39.71,34.14,1.12,8.06,14.42,148.09,15,154.05Z" style="fill:#dbdbdb"></path><rect x="156.32" y="369.4" width="91.47" height="7" style="fill:#dbdbdb"></rect><polygon points="155.53 450.38 143.96 450.38 144.86 436.19 154.63 436.19 155.53 450.38" style="fill:#a6a6a6"></polygon><polygon points="260.29 450.38 248.72 450.38 249.62 436.19 259.39 436.19 260.29 450.38" style="fill:#a6a6a6"></polygon><path d="M165.13,183.78c-1.77,7.42-15.64,33.05-15.64,34.51s26.79,12.29,31.95,15.33c3.5,2.07-9.6,27.1-16.43,23.76-10.59-5.17-41.45-20.55-43-31.29s29.29-42.63,35.33-48.29S168.06,171.6,165.13,183.78Z" style="fill:#ad6359"></path><path d="M210.57,258.49a4.53,4.53,0,0,1-4.23,3,6.75,6.75,0,0,1-.46,4.56c-1.32,2.44-5.72,1.44-5.72,1.44a8.28,8.28,0,0,1-1.25,4.72c-1.5,2.21-6.08,1.84-6.08,1.84a7.24,7.24,0,0,1-3.72,3.46c-4.38,1.62-10-2.75-13.64-5.49s-11.3-13.9-13-15.88l17.4-23.35s19.7,7.68,23.5,11.5C206.58,247.5,211.65,255.12,210.57,258.49Z" style="fill:#ad6359"></path><path d="M206.46,261c-2.57-4.24-6.26-7.49-9.76-11a.09.09,0,0,0-.12.13c3.52,3.39,6.32,7.44,9.69,11C206.37,261.22,206.53,261.09,206.46,261Z" style="fill:#263238"></path><path d="M200.31,267.11a12.87,12.87,0,0,0-2.36-2.42c-.89-.8-1.8-1.58-2.72-2.35-1.84-1.54-3.72-3-5.64-4.48-.08-.06-.2.05-.12.12,1.84,1.54,3.65,3.1,5.41,4.72.89.8,1.76,1.62,2.64,2.44a15,15,0,0,0,2.57,2.2A.16.16,0,0,0,200.31,267.11Z" style="fill:#263238"></path><path d="M192.75,274a8.82,8.82,0,0,0-2.24-2.06L188,269.83c-1.69-1.38-3.38-2.77-5-4.22a.09.09,0,0,0-.12.13c1.66,1.47,3.3,3,5,4.43l2.47,2.14a8.42,8.42,0,0,0,2.42,1.74C192.74,274.07,192.78,274,192.75,274Z" style="fill:#263238"></path><path d="M180.8,229.91,158.59,257s-34.25-18.12-37.48-29.6c-3-10.57,32.14-47.61,37.55-52.13s11-3.48,6.13,10.73c-5,14.66-15.11,30.9-14.38,32S180.8,229.91,180.8,229.91Z" style="fill:#5CDB95"></path><path d="M152.09,210.18a6.37,6.37,0,0,1,.93-1.39,6.37,6.37,0,0,1-.56,1.57,6.51,6.51,0,0,1-.92,1.4A6.17,6.17,0,0,1,152.09,210.18Zm-24,3.12a6.2,6.2,0,0,0,.93-1.4,6,6,0,0,0,.55-1.57,6.33,6.33,0,0,0-.92,1.39A6.6,6.6,0,0,0,128.06,213.3Zm35.26,24a6.27,6.27,0,0,0,.92-1.4,6.45,6.45,0,0,0,.56-1.58,6.27,6.27,0,0,0-.92,1.4A6.06,6.06,0,0,0,163.32,237.27Zm-13.74,13a6.68,6.68,0,0,0,.93-1.4,6,6,0,0,0,.55-1.58,6.27,6.27,0,0,0-.92,1.4A6.45,6.45,0,0,0,149.58,250.29Zm-11.37-22.72a6.27,6.27,0,0,0,.92-1.4,6.06,6.06,0,0,0,.56-1.58,6.27,6.27,0,0,0-.92,1.4A6.45,6.45,0,0,0,138.21,227.57Zm26.92-54.24a6.93,6.93,0,0,0-.43.75,6.45,6.45,0,0,0-.56,1.58,6.27,6.27,0,0,0,.92-1.4,6.88,6.88,0,0,0,.32-.74Zm-9,68.22a6.27,6.27,0,0,0-1.4-.92,6.45,6.45,0,0,0-1.58-.56,6.27,6.27,0,0,0,1.4.92A6.06,6.06,0,0,0,156.09,241.55Zm14.51-14a6.68,6.68,0,0,0-1.4-.93,6,6,0,0,0-1.58-.55,6.63,6.63,0,0,0,1.4.92A6.45,6.45,0,0,0,170.6,227.57Zm-16.14-38.52a6.63,6.63,0,0,0-1.4-.92,6.45,6.45,0,0,0-1.58-.56,6.27,6.27,0,0,0,1.4.92A6.06,6.06,0,0,0,154.46,189.05Zm-4.88,33.36a6,6,0,0,0-1.39-.92,6.45,6.45,0,0,0-1.58-.56,5.84,5.84,0,0,0,1.4.92A6.12,6.12,0,0,0,149.58,222.41ZM134,235.78a5.84,5.84,0,0,0-1.4-.92,6,6,0,0,0-1.57-.56,6,6,0,0,0,1.39.92A6.6,6.6,0,0,0,134,235.78Zm4.19-29.56a6.51,6.51,0,0,0-1.4-.92,6,6,0,0,0-1.57-.55,6.7,6.7,0,0,0,1.39.92A6.17,6.17,0,0,0,138.21,206.22Zm-13.73,21.87a6,6,0,0,0,1.64-.33,6.34,6.34,0,0,0,1.51-.72,6,6,0,0,0-1.64.33A7,7,0,0,0,124.48,228.09Zm20.91,6.42a6.47,6.47,0,0,0,1.64-.34,6.14,6.14,0,0,0,1.51-.72,6.29,6.29,0,0,0-1.64.34A6,6,0,0,0,145.39,234.51Zm26.39,1.8a6.38,6.38,0,0,0,1.64-.34,6,6,0,0,0,1.51-.72,6.38,6.38,0,0,0-1.64.34A6,6,0,0,0,171.78,236.31Zm-10.13,10.18a6,6,0,0,0,1.64-.33,7,7,0,0,0,1.51-.72,5.9,5.9,0,0,0-1.64.33A6.74,6.74,0,0,0,161.65,246.49ZM160,197.81l-.29.1a6.38,6.38,0,0,1-1.64.34,6.14,6.14,0,0,1,1.51-.72,6.32,6.32,0,0,1,.62-.18ZM140.08,214a6.37,6.37,0,0,0,1.64-.33,6.74,6.74,0,0,0,1.51-.72,6,6,0,0,0-1.64.33A7,7,0,0,0,140.08,214ZM147,198.48a6.38,6.38,0,0,0,.34,1.64,6,6,0,0,0,.72,1.51,6.38,6.38,0,0,0-.34-1.64A6,6,0,0,0,147,198.48Zm8.84,28a6,6,0,0,0,.33,1.64,6.74,6.74,0,0,0,.72,1.51,6,6,0,0,0-.33-1.64A6.74,6.74,0,0,0,155.8,226.47Zm-25-8.36a6.47,6.47,0,0,0,.34,1.64,6.14,6.14,0,0,0,.72,1.51,6.38,6.38,0,0,0-.34-1.64A6,6,0,0,0,130.81,218.11Zm9.79,21.46a6.67,6.67,0,0,0,1.06,3.15,7,7,0,0,0-1.06-3.15Zm20.06-58.25A6.38,6.38,0,0,0,161,183a6,6,0,0,0,.72,1.51,6.47,6.47,0,0,0-.34-1.64A6.14,6.14,0,0,0,160.66,181.32Z" style="fill:#fff"></path><path d="M173.51,228.66c-1.71,1.78-3.28,3.72-4.89,5.58s-3.29,3.82-4.91,5.75-3.18,3.81-4.75,5.73-3,3.95-4.48,5.87c0,.07.06.17.12.1,1.62-1.87,3.37-3.61,5-5.51s3.24-3.87,4.84-5.82,3.05-3.77,4.56-5.67,3.21-3.89,4.66-5.93C173.68,228.69,173.57,228.6,173.51,228.66Z" style="fill:#263238"></path><path d="M181.12,230c-1.88-.9-20.19-7.81-24.23-9.41-2.16-.85-4-1.69-6.18-2.53.54-1,2.25-4.91,2.7-5.89q1.43-3,2.84-6.1c.79-1.7,1.55-3.41,2.31-5.12,1-1.38,1.91-2.76,2.75-4.21,0-.05-.05-.12-.08-.07-.77,1-1.46,2-2.14,3.11.88-2,1.74-4,2.57-6,0-.05,0-.08-.06,0q-3.09,6-5.94,12c-.95,2-5.5,12.44-5.5,12.44,3.88,1.73,7.76,3.45,11.72,5s17.54,6.71,18.66,7c-.13.17-.76,1-.85,1.1s.11,0,.17,0S181.12,230,181.12,230Z" style="fill:#263238"></path></g></svg>