<svg width="2518" height="951" viewBox="0 0 2518 951" fill="none" xmlns="http://www.w3.org/2000/svg">
<g clip-path="url(#clip0_507_63)">
<rect width="2518" height="951" fill="white"/>
<path d="M861.2 355V411.8H952.8V464.6H861.2V526.2H964.8V581H792.8V300.2H964.8V355H861.2ZM1260.41 581H1192.01L1077.61 407.8V581H1009.21V300.2H1077.61L1192.01 474.2V300.2H1260.41V581ZM1472.79 581L1378.39 457V581H1309.99V300.2H1378.39V423.4L1471.99 300.2H1552.39L1443.59 437.8L1556.39 581H1472.79ZM1763.69 531.4H1658.89L1642.09 581H1570.49L1672.09 300.2H1751.29L1852.89 581H1780.49L1763.69 531.4ZM1746.09 478.6L1711.29 375.8L1676.89 478.6H1746.09ZM2046.62 581L1952.22 457V581H1883.82V300.2H1952.22V423.4L2045.82 300.2H2126.22L2017.42 437.8L2130.22 581H2046.62ZM2229.92 300.2V468.2C2229.92 485 2234.06 497.933 2242.32 507C2250.59 516.067 2262.72 520.6 2278.72 520.6C2294.72 520.6 2306.99 516.067 2315.52 507C2324.06 497.933 2328.32 485 2328.32 468.2V300.2H2396.72V467.8C2396.72 492.867 2391.39 514.067 2380.72 531.4C2370.06 548.733 2355.66 561.8 2337.52 570.6C2319.66 579.4 2299.66 583.8 2277.52 583.8C2255.39 583.8 2235.52 579.533 2217.92 571C2200.59 562.2 2186.86 549.133 2176.72 531.8C2166.59 514.2 2161.52 492.867 2161.52 467.8V300.2H2229.92Z" fill="#26AB6B"/>
<path d="M159.855 387.239L385.988 652.399C397.827 660.338 421.035 675.796 419.155 674.113C416.804 672.008 421.3 677.174 456.735 690.168C485.084 700.564 510.769 683.603 513.078 675.626L552.474 609.429L299.938 319.003L137.265 360.989L159.855 387.239Z" fill="url(#paint0_linear_507_63)"/>
<path d="M600.812 590.147C604.064 575.902 624.947 481.98 682.466 220.244L516.403 263.105C516.403 263.105 438.192 597.326 430.089 634.21C421.987 671.094 380.101 647.112 380.101 647.112C547.428 812.228 600.812 590.147 600.812 590.147Z" fill="#26AB6B"/>
<path d="M650.475 483.184L424.342 218.024C412.503 210.085 389.295 194.627 391.175 196.31C393.525 198.415 389.029 193.249 353.594 180.255C325.246 169.859 299.561 186.82 297.251 194.797L257.856 260.994L510.391 551.42L673.065 509.434L650.475 483.184Z" fill="url(#paint1_linear_507_63)"/>
<path d="M209.534 280.354C206.282 294.598 185.399 388.52 127.881 650.256L293.943 607.396C293.943 607.396 372.154 273.174 380.257 236.29C388.359 199.407 430.245 223.388 430.245 223.388C262.919 58.2726 209.534 280.354 209.534 280.354Z" fill="#26AB6B"/>
</g>
<defs>
<linearGradient id="paint0_linear_507_63" x1="403.818" y1="713.606" x2="301.845" y2="318.511" gradientUnits="userSpaceOnUse">
<stop stop-color="#144A23"/>
<stop offset="1" stop-color="#C4C4C4" stop-opacity="0"/>
</linearGradient>
<linearGradient id="paint1_linear_507_63" x1="406.511" y1="156.817" x2="508.485" y2="551.912" gradientUnits="userSpaceOnUse">
<stop stop-color="#154924"/>
<stop offset="0.234375" stop-color="#265533" stop-opacity="0.90625"/>
<stop offset="1" stop-color="#C4C4C4" stop-opacity="0"/>
</linearGradient>
<clipPath id="clip0_507_63">
<rect width="2518" height="951" fill="white"/>
</clipPath>
</defs>
</svg>
